<svg width="600" height="600" viewBox="0 0 600 600" fill="none" xmlns="http://www.w3.org/2000/svg">
<g clip-path="url(#clip0_2417_5115)">
<path d="M292.21 66.3301C290.09 97.8001 291.22 131.11 291.27 179.17C291.27 179.503 291.103 179.693 290.77 179.74L290 179.83" stroke="#854B24" stroke-width="2"/>
<path d="M290 179.83C262.51 183.49 241.76 203.95 237.13 231.32" stroke="#866537" stroke-width="2"/>
<path d="M237.13 231.32C236.457 236.44 236.303 241.4 236.67 246.2" stroke="#755F45" stroke-width="2"/>
<path d="M236.67 246.2C237.517 254.6 239.91 262.273 243.85 269.22" stroke="#3F4F56" stroke-width="2"/>
<path d="M243.85 269.22C253.543 286.133 267.907 296.31 286.94 299.75" stroke="#15517F" stroke-width="2"/>
<path d="M286.94 299.75L291.31 300.06C291.429 300.068 291.541 300.122 291.623 300.211C291.705 300.3 291.75 300.418 291.75 300.54C291.743 337.967 291.747 375.33 291.76 412.63C291.76 419.71 298.85 418.46 298.82 411.5C298.687 382.073 298.683 345 298.81 300.28" stroke="#34596E" stroke-width="2"/>
<path d="M298.81 300.28C311.303 299.573 322.363 295.497 331.99 288.05" stroke="#3F4F56" stroke-width="2"/>
<path d="M331.99 288.05C339.123 282.65 344.837 275.943 349.13 267.93" stroke="#755F45" stroke-width="2"/>
<path d="M349.13 267.93C352.39 261.83 354.507 254.877 355.48 247.07" stroke="#854B24" stroke-width="2"/>
<path d="M355.48 247.07C357.36 229.023 352.263 213.187 340.19 199.56C329.61 187.627 315.94 181.017 299.18 179.73" stroke="#83222F" stroke-width="2"/>
<path d="M299.18 179.73C299.42 151.24 299.1 122.75 299.1 94.2501C299.1 84.4701 298.8 74.7401 298.2 65.0601" stroke="#854B24" stroke-width="2"/>
<path d="M298.2 65.06L295.58 32.31C295.34 29.2834 295.1 29.2834 294.86 32.31L292.21 66.33" stroke="#866537" stroke-width="2"/>
<path d="M298.2 65.06C297.133 64.8 296.153 64.77 295.26 64.97C295.229 64.9775 295.197 64.9781 295.167 64.9716C295.136 64.9651 295.107 64.9517 295.082 64.9325C295.057 64.9133 295.037 64.8888 295.022 64.8606C295.008 64.8325 295.001 64.8015 295 64.77C295 64.6634 295 64.56 295 64.46C295.001 64.418 294.99 64.3769 294.968 64.3414C294.946 64.3059 294.913 64.2776 294.874 64.2598C294.835 64.242 294.792 64.2353 294.749 64.2407C294.705 64.2461 294.664 64.2632 294.63 64.29L292.21 66.33" stroke="#FB9F42" stroke-width="2"/>
<path d="M299.18 179.73C298.153 181.197 297.937 182.987 298.53 185.1C298.983 186.707 299.223 189.6 299.25 193.78" stroke="#F85C3A" stroke-width="2"/>
<path d="M299.25 193.78L289.86 194.02" stroke="#854B24" stroke-width="2"/>
<path d="M289.86 194.02L290 179.83" stroke="#FB9F42" stroke-width="2"/>
<path d="M289.86 194.02C268.25 197.24 252.83 213.67 250.14 235.07" stroke="#866537" stroke-width="2"/>
<path d="M250.14 235.07C248.267 235.95 245.743 235.977 242.57 235.15C241.443 234.857 240.653 234.407 240.2 233.8C240.113 233.693 240.02 233.687 239.92 233.78L239.57 234.14C239.457 234.253 239.327 234.277 239.18 234.21C238.553 233.917 238.337 233.393 238.53 232.64C238.61 232.34 238.53 232.087 238.29 231.88C237.977 231.62 237.59 231.433 237.13 231.32" stroke="#EBB263" stroke-width="2"/>
<path d="M355.48 247.07C353.72 250.77 351.723 252.43 349.49 252.05C346.23 251.497 343.31 251.57 340.73 252.27" stroke="#F85C3A" stroke-width="2"/>
<path d="M340.73 252.27C346.82 223.68 328.83 196.78 299.25 193.78" stroke="#83222F" stroke-width="2"/>
<path d="M340.73 252.27C339.263 258.07 336.65 263.483 332.89 268.51" stroke="#854B24" stroke-width="2"/>
<path d="M332.89 268.51C330.557 271.85 327.387 274.963 323.38 277.85" stroke="#755F45" stroke-width="2"/>
<path d="M323.38 277.85C315.813 283.21 307.263 286.14 297.73 286.64" stroke="#3F4F56" stroke-width="2"/>
<path d="M297.73 286.64C289.81 286.913 282.17 285.253 274.81 281.66" stroke="#34596E" stroke-width="2"/>
<path d="M274.81 281.66C266.777 277.033 260.513 271.067 256.02 263.76" stroke="#15517F" stroke-width="2"/>
<path d="M256.02 263.76C252.827 257.973 250.883 252.17 250.19 246.35" stroke="#3F4F56" stroke-width="2"/>
<path d="M250.19 246.35L250.14 235.07" stroke="#755F45" stroke-width="2"/>
<path d="M250.19 246.35L236.67 246.2" stroke="#A49D82" stroke-width="2"/>
<path d="M349.13 267.93C347.99 268.417 347.163 269.197 346.65 270.27C346.503 270.57 346.277 270.79 345.97 270.93C345.05 271.35 344.557 272.043 344.49 273.01C344.47 273.323 344.35 273.597 344.13 273.83L341 277.2C340.853 277.36 340.683 277.387 340.49 277.28C336.337 274.987 333.803 272.063 332.89 268.51" stroke="#EA9950" stroke-width="2"/>
<path d="M298.81 300.28C300.33 298.527 301.057 297.093 300.99 295.98C300.837 293.58 300.25 290.657 299.23 287.21C299.137 286.89 298.923 286.72 298.59 286.7L297.73 286.64" stroke="#6397AB" stroke-width="2"/>
<path d="M274.81 281.66C278.057 285.167 282.703 287.127 288.75 287.54C289.19 287.573 289.367 287.807 289.28 288.24C288.713 291.147 288.633 294.06 289.04 296.98C289.062 297.126 289.051 297.275 289.008 297.416C288.964 297.556 288.89 297.684 288.79 297.79L286.94 299.75" stroke="#3999D4" stroke-width="2"/>
<path d="M331.99 288.05C330.99 287.243 330.1 286.33 329.32 285.31C327.26 282.64 324.77 281.1 323.38 277.85" stroke="#A49D82" stroke-width="2"/>
<path d="M256.02 263.76L243.85 269.22" stroke="#438FBC" stroke-width="2"/>
<path d="M385.55 301.51L385.48 346.44" stroke="#493758" stroke-width="2"/>
<path d="M385.48 346.44L385.82 388.86C385.827 389.453 386.127 389.75 386.72 389.75H398.74C398.873 389.75 399 389.697 399.094 389.604C399.187 389.51 399.24 389.383 399.24 389.25L399.22 338.74" stroke="#382669" stroke-width="2"/>
<path d="M399.22 338.74L398.96 303.25" stroke="#493758" stroke-width="2"/>
<path d="M398.96 303.25C399.01 290.58 399.97 276.99 397.98 264.48C396.26 253.647 394.44 242.86 392.52 232.12C392.512 232.093 392.496 232.069 392.473 232.052C392.451 232.035 392.423 232.026 392.395 232.026C392.367 232.026 392.339 232.035 392.317 232.052C392.294 232.069 392.278 232.093 392.27 232.12C390.803 241.88 389.107 251.623 387.18 261.35C384.62 274.31 385.25 288.33 385.55 301.51" stroke="#513F4D" stroke-width="2"/>
<path d="M398.96 303.25C398.827 303.223 398.737 303.08 398.69 302.82C398.686 302.807 398.678 302.795 398.667 302.786C398.656 302.777 398.643 302.772 398.628 302.771C398.614 302.77 398.6 302.773 398.588 302.78C398.576 302.787 398.566 302.797 398.56 302.81L398.44 303.19C398.42 303.25 398.377 303.273 398.31 303.26C394.403 302.28 390.43 301.653 386.39 301.38C386.337 301.38 386.31 301.407 386.31 301.46C386.31 301.56 386.293 301.647 386.26 301.72C386.087 302.14 386 302.15 386 301.75V301.25C386 301.063 385.94 301.04 385.82 301.18L385.55 301.51" stroke="#89658C" stroke-width="2"/>
<path d="M399.22 338.74L398.99 345.94C398.983 346.147 398.923 346.163 398.81 345.99C398.75 345.903 398.713 345.81 398.7 345.71C398.653 345.45 398.507 345.27 398.26 345.17C395.94 344.263 393.7 344.52 391.54 345.94C391.394 346.034 391.228 346.093 391.057 346.114C390.885 346.135 390.712 346.116 390.55 346.06C388.57 345.393 386.88 345.52 385.48 346.44" stroke="#714CA8" stroke-width="2"/>
<path d="M296.66 496C297.993 494.38 298.937 492.363 299.49 489.95C309.6 445.67 322.31 401.57 341.42 359.7" stroke="#15517F" stroke-width="2"/>
<path d="M341.42 359.7C347.973 346.027 355.32 332.78 363.46 319.96C366.09 315.83 360.97 313.18 358.81 316.31C350.77 327.93 342.96 341.943 335.38 358.35" stroke="#34596E" stroke-width="2"/>
<path d="M335.38 358.35C322.94 385.34 314.05 411.1 305.94 439.62C302.17 452.86 298.35 469.61 295.1 481.78C294.487 484.073 294.13 485.9 294.03 487.26" stroke="#15517F" stroke-width="2"/>
<path d="M294.03 487.26C273.3 415.35 248.53 346.62 213.54 281.05C212.79 279.64 210.94 278.16 209.72 279.8C209.6 279.962 209.441 280.092 209.258 280.178C209.076 280.264 208.875 280.304 208.673 280.294C208.472 280.284 208.276 280.225 208.103 280.121C207.929 280.018 207.784 279.873 207.68 279.7L187.56 246.14C187.435 245.932 187.394 245.684 187.444 245.445C187.494 245.206 187.632 244.994 187.83 244.85C194.02 240.39 186.54 229.03 179 234.87C172.77 239.69 178.25 248.84 185.76 246.34C186.08 246.233 186.33 246.323 186.51 246.61C192.99 257.277 199.37 268.003 205.65 278.79C207.46 281.88 208.69 285.48 210.45 288.81C244.3 353.06 269.76 422.05 288.77 491.49C289.323 493.503 289.967 495.08 290.7 496.22C290.794 496.368 290.919 496.493 291.066 496.588C291.213 496.683 291.378 496.745 291.55 496.77C293.497 497.063 295.2 496.807 296.66 496" stroke="#7F8286" stroke-width="2"/>
<path d="M294.03 487.26C294.383 490.5 295.26 493.413 296.66 496" stroke="#84C2EC" stroke-width="2"/>
<path d="M341.42 359.7C340.267 358.573 338.253 358.123 335.38 358.35" stroke="#3999D4" stroke-width="2"/>
<path d="M502.98 294.77C503.127 319.843 503.04 338.503 502.72 350.75C502.7 351.51 502.307 352.433 501.54 353.52C501.384 353.735 501.297 353.993 501.29 354.26L500.93 368.54C500.917 369.007 500.677 369.233 500.21 369.22C498.49 369.153 497.663 369.95 497.73 371.61C497.95 377.52 497.63 383.48 497.84 389.4C497.853 389.653 497.983 389.78 498.23 389.78L524.57 389.74C525.017 389.74 525.24 389.517 525.24 389.07L525.16 293.22" stroke="#382669" stroke-width="2"/>
<path d="M525.16 293.22L525.15 264.15C525.15 263.803 525.003 263.533 524.71 263.34C520.04 260.28 507.89 259.07 504.34 263.26C503.66 264.067 503.303 265.19 503.27 266.63C503.063 276.017 502.967 285.397 502.98 294.77" stroke="#493758" stroke-width="2"/>
<path d="M525.16 293.22C519.573 293.047 514.043 293.777 508.57 295.41C508.41 295.457 508.27 295.537 508.15 295.65C507.97 295.817 507.773 295.85 507.56 295.75C507.522 295.733 507.49 295.704 507.468 295.668C507.446 295.632 507.435 295.59 507.438 295.548C507.44 295.506 507.454 295.466 507.48 295.432C507.505 295.399 507.54 295.373 507.58 295.36L508.49 295.02C509.123 294.793 509.103 294.683 508.43 294.69L502.98 294.77" stroke="#714CA8" stroke-width="2"/>
<path d="M58.11 310.96L58.03 342.01" stroke="#785140" stroke-width="2"/>
<path d="M58.03 342.01L58.02 389.33C58.02 389.69 58.2 389.867 58.56 389.86L73.71 389.74C74.0967 389.733 74.29 389.537 74.29 389.15L74.31 343.47" stroke="#7D363A" stroke-width="2"/>
<path d="M74.31 343.47L72.72 313.23" stroke="#785140" stroke-width="2"/>
<path d="M72.7201 313.23L72.1701 282.11C72.1634 281.703 71.9567 281.483 71.55 281.45L65.5101 280.97C65.2167 280.95 65.0667 280.793 65.0601 280.5L64.8501 271.31C64.8501 271.167 64.7932 271.029 64.6919 270.928C64.5906 270.827 64.4533 270.77 64.3101 270.77C64.1668 270.77 64.0295 270.827 63.9282 270.928C63.827 271.029 63.7701 271.167 63.7701 271.31L63.4201 280.75C63.4067 281.03 63.2634 281.177 62.9901 281.19L58.6601 281.4C58.2601 281.42 58.0601 281.63 58.0601 282.03L58.11 310.96" stroke="#755F45" stroke-width="2"/>
<path d="M72.7199 313.23C72.9399 314.383 72.8765 315.233 72.5299 315.78C72.4903 315.845 72.4325 315.898 72.3635 315.93C72.2946 315.963 72.2175 315.975 72.1419 315.964C72.0663 315.954 71.9955 315.921 71.9383 315.87C71.881 315.82 71.8399 315.754 71.8199 315.68L71.0999 313.21C70.9999 312.877 70.7865 312.667 70.4599 312.58L62.7199 310.47C62.3732 310.377 62.1232 310.49 61.9699 310.81C61.7232 311.323 61.3732 311.41 60.9199 311.07C60.8502 311.018 60.7705 310.98 60.6859 310.961C60.6012 310.941 60.5136 310.939 60.4286 310.955C60.3437 310.971 60.2634 311.004 60.193 311.054C60.1226 311.103 60.0636 311.166 60.0199 311.24L59.7699 311.66C59.4765 312.153 59.2265 312.13 59.0199 311.59L58.6999 310.75C58.6466 310.617 58.5865 310.613 58.5199 310.74C58.4199 310.947 58.2832 311.02 58.1099 310.96" stroke="#DD9F6C" stroke-width="2"/>
<path d="M74.31 343.47C74.1167 343.697 74.0034 344.017 73.97 344.43C73.9367 344.923 73.85 344.933 73.71 344.46C72.98 342 73.63 339.51 72.51 337.53C71.43 335.603 69.6367 334.85 67.13 335.27C66.89 335.31 66.7067 335.433 66.58 335.64L66.36 336.01C66.2951 336.119 66.2054 336.211 66.098 336.281C65.9905 336.35 65.8681 336.394 65.74 336.41L58.91 337.23C58.4967 337.277 58.2767 337.51 58.25 337.93L58.03 342.01" stroke="#E57661" stroke-width="2"/>
<path d="M441.755 289.434C441.724 288.627 441.528 287.834 441.177 287.101C440.827 286.368 440.329 285.708 439.712 285.161C439.096 284.613 438.372 284.187 437.583 283.908C436.794 283.629 435.955 283.502 435.114 283.535C434.273 283.567 433.446 283.758 432.681 284.097C431.915 284.435 431.227 284.915 430.654 285.509C430.081 286.102 429.635 286.798 429.342 287.556C429.049 288.314 428.914 289.119 428.945 289.926C428.976 290.733 429.172 291.526 429.523 292.259C429.873 292.992 430.371 293.652 430.988 294.2C431.605 294.747 432.328 295.173 433.117 295.452C433.906 295.731 434.745 295.858 435.586 295.826C436.427 295.793 437.254 295.602 438.019 295.264C438.785 294.925 439.473 294.445 440.046 293.852C440.619 293.258 441.065 292.562 441.358 291.805C441.651 291.047 441.786 290.241 441.755 289.434Z" stroke="#7F8286" stroke-width="2"/>
<path d="M421.7 317.58L421.5 314.95C421.393 313.637 420.683 312.997 419.37 313.03L407.46 313.33C407.337 313.333 407.22 313.383 407.134 313.471C407.048 313.559 407 313.677 407 313.8V319.23C407 319.323 406.981 319.416 406.944 319.501C406.907 319.587 406.852 319.663 406.783 319.726C406.714 319.789 406.633 319.837 406.545 319.867C406.457 319.897 406.363 319.908 406.27 319.9C404.79 319.753 404.043 320.613 404.03 322.48C403.983 329.207 403.977 335.857 404.01 342.43" stroke="#513F4D" stroke-width="2"/>
<path d="M404.01 342.43L404.03 370.62" stroke="#493758" stroke-width="2"/>
<path d="M404.03 370.62L404.23 389.24C404.237 389.58 404.41 389.75 404.75 389.75H421.73C421.865 389.75 421.995 389.696 422.091 389.601C422.186 389.505 422.24 389.375 422.24 389.24L422.23 373.27" stroke="#382669" stroke-width="2"/>
<path d="M422.23 373.27L422.22 343.95" stroke="#493758" stroke-width="2"/>
<path d="M422.22 343.95L422.11 319.28" stroke="#513F4D" stroke-width="2"/>
<path d="M422.11 319.28L433.94 296.8C434.053 296.593 433.99 296.493 433.75 296.5C433.65 296.5 433.543 296.493 433.43 296.48C433.203 296.46 433.037 296.55 432.93 296.75L421.7 317.58" stroke="#7F8286" stroke-width="2"/>
<path d="M422.11 319.28C421.85 318.873 421.713 318.307 421.7 317.58" stroke="#C0B0BA" stroke-width="2"/>
<path d="M422.22 343.95L404.01 342.43" stroke="#89658C" stroke-width="2"/>
<path d="M422.23 373.27L421.95 372.22C421.87 371.913 421.673 371.74 421.36 371.7C417.76 371.25 414.27 369.86 410.82 370C408.567 370.087 406.303 370.293 404.03 370.62" stroke="#714CA8" stroke-width="2"/>
<path d="M160.79 351.31L160.89 389.13C160.89 389.543 161.097 389.75 161.51 389.75H174C174.199 389.75 174.39 389.671 174.53 389.53C174.671 389.39 174.75 389.199 174.75 389V348.23C174.75 347.763 174.517 347.53 174.05 347.53C173.103 347.523 172.467 347.377 172.14 347.09" stroke="#7D363A" stroke-width="2"/>
<path d="M172.14 347.09L172.16 304.28C172.16 303.807 171.923 303.573 171.45 303.58L161.38 303.7C160.967 303.7 160.76 303.907 160.76 304.32L160.79 351.31" stroke="#755F45" stroke-width="2"/>
<path d="M172.14 347.09C171.067 346.197 169.68 345.907 167.98 346.22C166.453 346.5 164.847 346.747 163.16 346.96C163.001 346.979 162.852 347.053 162.738 347.169C162.624 347.285 162.551 347.436 162.53 347.6C162.317 349.34 161.737 350.577 160.79 351.31" stroke="#E28466" stroke-width="2"/>
<path d="M443.5 351.14L443.84 389.32C443.84 389.62 443.993 389.77 444.3 389.77L457.78 389.7C458.093 389.693 458.25 389.533 458.25 389.22V381.06C458.25 380.733 458.343 380.44 458.53 380.18C460.197 377.9 460.627 375.327 459.82 372.46C459.727 372.133 459.543 371.863 459.27 371.65L457.84 370.52C457.755 370.454 457.687 370.371 457.638 370.276C457.59 370.181 457.563 370.076 457.56 369.97L457.01 353.24" stroke="#382669" stroke-width="2"/>
<path d="M457.01 353.24L456.68 304.38C456.68 304.181 456.6 303.99 456.457 303.85C456.315 303.709 456.122 303.63 455.92 303.63L444.16 303.55C444.079 303.549 443.999 303.564 443.923 303.594C443.848 303.624 443.78 303.668 443.722 303.725C443.664 303.782 443.619 303.85 443.587 303.924C443.556 303.999 443.54 304.079 443.54 304.16L443.5 351.14" stroke="#493758" stroke-width="2"/>
<path d="M457.01 353.24C456.043 352.8 455.293 352.857 454.76 353.41C454.52 353.65 454.273 353.657 454.02 353.43C453.167 352.67 452.187 352.457 451.08 352.79C450.943 352.831 450.798 352.84 450.658 352.818C450.518 352.795 450.385 352.741 450.27 352.66C448.05 351.08 445.793 350.573 443.5 351.14" stroke="#714CA8" stroke-width="2"/>
<path d="M305.77 351.22L305.76 389.03C305.76 389.417 305.953 389.597 306.34 389.57L309.9 389.3C310.32 389.267 310.6 389.053 310.74 388.66C312.447 383.893 315.353 376.153 319.46 365.44C321.007 361.407 321.573 357.033 321.16 352.32C321.14 352.04 320.99 351.9 320.71 351.9L313.95 352.01" stroke="#7D363A" stroke-width="2"/>
<path d="M313.95 352.01L313.99 315.44C313.99 314.98 313.76 314.75 313.3 314.75H306.69C306.297 314.75 306.1 314.947 306.1 315.34L305.77 351.22" stroke="#755F45" stroke-width="2"/>
<path d="M313.95 352.01C311.397 349.343 308.67 349.08 305.77 351.22" stroke="#E28466" stroke-width="2"/>
<path d="M123.27 351.27V389.25C123.27 389.583 123.437 389.75 123.77 389.75H138.96C139.3 389.75 139.47 389.58 139.47 389.24L139.5 355.51" stroke="#7D363A" stroke-width="2"/>
<path d="M139.5 355.51L139.23 315.96C139.227 315.704 139.124 315.46 138.942 315.281C138.761 315.101 138.516 315 138.26 315H132.39C132.301 315 132.213 315.018 132.131 315.052C132.049 315.086 131.975 315.136 131.913 315.2C131.85 315.263 131.801 315.338 131.768 315.421C131.735 315.503 131.719 315.591 131.72 315.68L131.84 324.33C131.847 324.61 131.71 324.75 131.43 324.75H128.19C127.323 324.75 126.873 325.183 126.84 326.05L126.37 339.2C126.357 339.567 126.167 339.75 125.8 339.75H123.97C123.782 339.75 123.601 339.825 123.468 339.958C123.335 340.091 123.26 340.272 123.26 340.46L123.27 351.27" stroke="#785140" stroke-width="2"/>
<path d="M139.5 355.51L139.22 353.78C139.173 353.5 139.033 353.28 138.8 353.12C135.193 350.64 131.22 349.98 126.88 351.14C126.38 351.273 126.263 351.12 126.53 350.68L126.7 350.39C126.732 350.339 126.746 350.279 126.741 350.22C126.735 350.16 126.709 350.104 126.668 350.06C126.627 350.016 126.572 349.988 126.513 349.979C126.453 349.97 126.392 349.981 126.34 350.01L124.38 351.07C124.313 351.103 124.273 351.083 124.26 351.01L124.2 350.53C124.195 350.479 124.173 350.431 124.139 350.393C124.104 350.355 124.059 350.329 124.008 350.319C123.958 350.309 123.906 350.315 123.859 350.337C123.813 350.359 123.774 350.395 123.75 350.44L123.27 351.27" stroke="#E57661" stroke-width="2"/>
<path d="M545.05 389.71C545.367 389.708 545.669 389.58 545.892 389.355C546.115 389.13 546.24 388.827 546.24 388.51C546.26 368.943 546.26 349.137 546.24 329.09C546.23 324.85 541.52 322.42 538.98 320.52C538.85 320.423 538.696 320.362 538.534 320.344C538.372 320.327 538.208 320.353 538.06 320.42C534.32 322.15 529.25 324.63 529.24 329.5C529.213 349.4 529.33 369.27 529.59 389.11C529.597 389.55 529.82 389.77 530.26 389.77L545.05 389.71Z" stroke="#75203E" stroke-width="2"/>
<path d="M105.04 349.28L104.81 389.28C104.81 389.593 104.963 389.75 105.27 389.75H113.5C113.696 389.75 113.885 389.672 114.023 389.533C114.162 389.394 114.24 389.206 114.24 389.01V344.49" stroke="#7D363A" stroke-width="2"/>
<path d="M114.24 344.49C114.26 340.16 115.27 328.89 113.54 325.37C111.68 321.58 105.03 322.8 105.01 327C104.977 334.193 104.987 341.62 105.04 349.28" stroke="#785140" stroke-width="2"/>
<path d="M114.24 344.49C114.08 344.63 113.997 344.837 113.99 345.11C113.977 345.377 113.84 345.537 113.58 345.59C110.76 346.17 107.913 347.4 105.04 349.28" stroke="#E57661" stroke-width="2"/>
<path d="M274.07 342.15L273.7 330.97C273.695 330.844 273.641 330.724 273.55 330.636C273.458 330.549 273.337 330.5 273.21 330.5H265.27C264.957 330.5 264.787 330.657 264.76 330.97C264.49 335.09 265.47 344.86 263.36 347.91C263.267 348.044 263.205 348.196 263.179 348.356C263.153 348.515 263.163 348.677 263.21 348.83C263.6 350.15 263.87 351.61 264.41 352.88C269.297 364.393 274.363 375.83 279.61 387.19C280.54 389.2 282.02 390.21 284.15 389.97C284.563 389.923 284.77 389.693 284.77 389.28L284.71 327.67C284.71 326.69 284.217 326.203 283.23 326.21L277.78 326.27C277.487 326.27 277.337 326.42 277.33 326.72L277.04 342.45C277.027 342.943 276.777 343.15 276.29 343.07L274.64 342.8C274.273 342.74 274.083 342.523 274.07 342.15Z" stroke="#7D363A" stroke-width="2"/>
<path d="M193.02 356.99L193.01 389.26C193.01 389.39 193.062 389.515 193.154 389.607C193.245 389.698 193.37 389.75 193.5 389.75H205.87C206.283 389.75 206.49 389.543 206.49 389.13L206.51 355.66C206.51 355.26 206.31 355.073 205.91 355.1L201.18 355.47" stroke="#7D363A" stroke-width="2"/>
<path d="M201.18 355.47C200.433 349.13 200.323 342.563 200.85 335.77C200.873 335.481 200.837 335.191 200.742 334.917C200.647 334.643 200.496 334.391 200.299 334.178C200.102 333.965 199.862 333.794 199.596 333.678C199.329 333.561 199.041 333.501 198.75 333.5H193.96C193.473 333.5 193.23 333.743 193.23 334.23L193.02 356.99" stroke="#785140" stroke-width="2"/>
<path d="M201.18 355.47C201.027 355.99 200.4 356.547 199.3 357.14C197.53 358.09 195.64 357.75 193.67 357.8C193.41 357.807 193.273 357.68 193.26 357.42C193.247 357.2 193.167 357.057 193.02 356.99" stroke="#E57661" stroke-width="2"/>
<path d="M77.79 355.26L77.75 389.24C77.75 389.58 77.92 389.75 78.26 389.75H99.74C100.047 389.75 100.197 389.597 100.19 389.29L99.98 381.56" stroke="#7D363A" stroke-width="2"/>
<path d="M99.98 381.56L99.99 335.76C99.99 335.42 99.8233 335.25 99.49 335.25H78.27C78.1347 335.25 78.005 335.304 77.9094 335.399C77.8137 335.495 77.76 335.625 77.76 335.76L77.79 355.26" stroke="#785140" stroke-width="2"/>
<path d="M99.98 381.56C99.14 372.46 98.9434 363.263 99.39 353.97C99.4221 353.32 99.2052 352.682 98.7835 352.186C98.3618 351.69 97.767 351.373 97.12 351.3C93.3667 350.873 89.2867 350.12 84.88 349.04C84.62 348.973 84.3734 348.977 84.14 349.05C84.0267 349.083 83.9134 349.13 83.8 349.19C83.5 349.33 83.2 349.333 82.9 349.2L81.9 348.75C81.5501 348.591 81.1618 348.537 80.7817 348.593C80.4017 348.65 80.0458 348.814 79.7568 349.067C79.4678 349.32 79.2578 349.652 79.152 350.021C79.0461 350.39 79.0489 350.782 79.16 351.15C79.54 352.41 79.3 353.593 78.44 354.7C78.4311 354.711 78.4196 354.719 78.4068 354.725C78.394 354.731 78.3803 354.733 78.3672 354.732C78.354 354.731 78.3418 354.727 78.3317 354.719C78.3217 354.712 78.3142 354.702 78.31 354.69L78.2 354.34C78.1994 354.334 78.1974 354.327 78.1943 354.321C78.1912 354.315 78.187 354.31 78.1819 354.306C78.1767 354.302 78.1709 354.299 78.1646 354.297C78.1582 354.295 78.1516 354.294 78.145 354.295C78.1385 354.296 78.1321 354.298 78.1263 354.301C78.1205 354.304 78.1153 354.308 78.1111 354.313C78.107 354.318 78.1038 354.324 78.1019 354.331C78.1 354.337 78.0994 354.343 78.1 354.35C78.0467 354.77 77.9434 355.073 77.79 355.26" stroke="#E57661" stroke-width="2"/>
<path d="M216 345.92C216 346.074 215.939 346.221 215.83 346.33C215.721 346.439 215.574 346.5 215.42 346.5H211.33C211.178 346.5 211.032 346.56 210.923 346.666C210.815 346.773 210.753 346.918 210.75 347.07L210.08 389.16C210.079 389.237 210.093 389.314 210.121 389.385C210.15 389.457 210.192 389.522 210.246 389.577C210.3 389.632 210.365 389.675 210.436 389.705C210.507 389.735 210.583 389.75 210.66 389.75H224.17C224.324 389.75 224.471 389.689 224.58 389.58C224.689 389.471 224.75 389.324 224.75 389.17V341.04C224.75 340.963 224.735 340.887 224.705 340.816C224.675 340.745 224.631 340.68 224.577 340.626C224.522 340.572 224.457 340.53 224.385 340.501C224.313 340.473 224.237 340.459 224.16 340.46L216.57 340.58C216.418 340.583 216.273 340.645 216.166 340.753C216.06 340.862 216 341.008 216 341.16V345.92Z" stroke="#7D363A" stroke-width="2"/>
<path d="M354.41 352.15L344.75 374.03" stroke="#493758" stroke-width="2"/>
<path d="M344.75 374.03L338.91 388.85C338.583 389.677 338.867 390.087 339.76 390.08L380.46 389.73C380.807 389.73 380.977 389.56 380.97 389.22L380.95 375.78" stroke="#382669" stroke-width="2"/>
<path d="M380.95 375.78L381.11 349.99" stroke="#493758" stroke-width="2"/>
<path d="M381.11 349.99L381 341.2C380.993 340.827 380.807 340.643 380.44 340.65L360.06 340.87C359.72 340.87 359.48 341.027 359.34 341.34L354.41 352.15" stroke="#513F4D" stroke-width="2"/>
<path d="M381.11 349.99L381.01 355.98C381.009 356.069 380.985 356.156 380.941 356.234C380.897 356.311 380.834 356.376 380.759 356.423C380.683 356.47 380.597 356.497 380.508 356.502C380.419 356.506 380.33 356.489 380.25 356.45L378.22 355.48C378.187 355.467 378.15 355.457 378.11 355.45C376.43 355.243 374.767 354.95 373.12 354.57C369.16 353.63 365.1 354.07 361.05 353.58C359.34 353.38 357.64 353.97 355.8 353.59C355.4 353.503 355.377 353.353 355.73 353.14L355.99 352.99C356.143 352.897 356.14 352.82 355.98 352.76L354.41 352.15" stroke="#89658C" stroke-width="2"/>
<path d="M380.95 375.78C374.43 374.113 367.867 373.56 361.26 374.12C358.11 374.39 355.42 374.02 352.41 373.68C349.91 373.4 347.48 374.39 344.75 374.03" stroke="#714CA8" stroke-width="2"/>
<path d="M148.04 346.59L147.93 344.45C147.92 344.263 147.838 344.088 147.702 343.959C147.567 343.831 147.387 343.76 147.2 343.76H143.37C143.197 343.76 143.031 343.826 142.906 343.945C142.782 344.065 142.708 344.228 142.7 344.4C142.16 359.38 142.127 374.357 142.6 389.33C142.607 389.61 142.75 389.75 143.03 389.75H156.22C156.427 389.75 156.625 389.668 156.771 389.522C156.918 389.375 157 389.177 157 388.97V348.3C157 347.627 156.663 347.283 155.99 347.27L148.53 347.08C148.217 347.073 148.053 346.91 148.04 346.59Z" stroke="#7D363A" stroke-width="2"/>
<path d="M486.26 389.81L491.55 389.73C492.063 389.717 492.317 389.457 492.31 388.95L491.94 352.59C491.94 352.19 491.74 351.99 491.34 351.99L487.87 352.01C487.796 352.011 487.723 352.029 487.656 352.062C487.589 352.095 487.531 352.142 487.485 352.201C487.439 352.259 487.406 352.327 487.39 352.4C487.374 352.472 487.374 352.547 487.39 352.62C487.83 354.567 487.483 356.307 486.35 357.84C486.141 358.128 486.019 358.464 486 358.81C485.347 369.023 485.307 379.24 485.88 389.46C485.885 389.556 485.928 389.647 485.999 389.712C486.07 389.778 486.164 389.813 486.26 389.81Z" stroke="#382669" stroke-width="2"/>
<path d="M190.532 354.264C190.533 354.073 190.459 353.889 190.325 353.753C190.191 353.616 190.009 353.539 189.818 353.537L181.438 353.464C181.344 353.463 181.25 353.481 181.162 353.517C181.075 353.552 180.995 353.604 180.927 353.671C180.86 353.737 180.806 353.816 180.769 353.903C180.732 353.99 180.713 354.083 180.712 354.178L180.408 388.977C180.407 389.167 180.481 389.351 180.615 389.487C180.749 389.624 180.931 389.701 181.122 389.703L189.502 389.776C189.596 389.777 189.69 389.759 189.778 389.724C189.865 389.688 189.945 389.636 190.013 389.569C190.08 389.503 190.134 389.424 190.171 389.337C190.208 389.25 190.227 389.157 190.228 389.062L190.532 354.264Z" stroke="#7D363A" stroke-width="2"/>
<path d="M236.58 369.44L236.04 365.59C235.98 365.197 235.75 365 235.35 365H229.59C229.504 365 229.418 365.017 229.339 365.05C229.259 365.084 229.187 365.132 229.127 365.194C229.066 365.255 229.019 365.328 228.987 365.408C228.955 365.488 228.939 365.574 228.94 365.66L229.01 389.25C229.01 389.583 229.173 389.75 229.5 389.75H245.24C245.607 389.75 245.747 389.573 245.66 389.22C244.05 382.43 242.58 372.03 238.76 368.56C238.34 368.18 238.17 368.27 238.25 368.83C238.363 369.61 238.017 369.997 237.21 369.99C236.843 369.99 236.633 369.807 236.58 369.44Z" stroke="#7D363A" stroke-width="2"/>
<path d="M476.8 370.91C476.534 371.335 476.177 371.696 475.755 371.966C475.333 372.235 474.856 372.408 474.36 372.47L470.21 372.99C470.061 373.01 469.924 373.083 469.826 373.195C469.729 373.308 469.676 373.452 469.68 373.6L469.93 389.22C469.937 389.573 470.116 389.75 470.47 389.75H480.14C480.56 389.75 480.77 389.537 480.77 389.11L480.7 370.26C480.7 369.867 480.51 369.63 480.13 369.55C478.67 369.25 477.56 369.703 476.8 370.91Z" stroke="#382669" stroke-width="2"/>
<path d="M568.176 370.507C568.175 370.402 568.154 370.298 568.113 370.202C568.072 370.105 568.012 370.017 567.938 369.943C567.863 369.869 567.774 369.811 567.677 369.772C567.579 369.732 567.475 369.712 567.37 369.713L553.811 369.808C553.598 369.809 553.396 369.895 553.247 370.046C553.098 370.197 553.015 370.401 553.016 370.613L553.144 388.993C553.145 389.098 553.167 389.202 553.207 389.298C553.248 389.395 553.308 389.483 553.383 389.557C553.458 389.631 553.546 389.689 553.643 389.728C553.741 389.768 553.845 389.788 553.95 389.787L567.51 389.692C567.722 389.691 567.925 389.605 568.074 389.454C568.223 389.303 568.306 389.099 568.304 388.887L568.176 370.507Z" stroke="#75203E" stroke-width="2"/>
<path d="M47.0901 410.98L96.2801 411.51" stroke="#854B24" stroke-width="2"/>
<path d="M96.28 411.51C147.17 411.41 198.09 411.91 249 411.47C250.72 411.457 252.53 411.15 254.43 410.55C254.601 410.497 254.745 410.38 254.832 410.224C254.92 410.067 254.944 409.884 254.9 409.71L254.15 406.66C254.03 406.167 253.713 405.92 253.2 405.92L92.74 405.51" stroke="#83222F" stroke-width="2"/>
<path d="M92.74 405.51L46.74 405.5" stroke="#854B24" stroke-width="2"/>
<path d="M46.74 405.5C42.06 394.6 25.78 401.84 31.7 412.55C33.7467 416.243 37.0967 417.37 41.75 415.93C44.16 415.19 45.59 412.9 47.09 410.98" stroke="#7F8286" stroke-width="2"/>
<path d="M46.74 405.5L47.09 410.98" stroke="#F4BC91" stroke-width="2"/>
<path d="M92.74 405.51L94.75 406.03C94.7635 406.034 94.7754 406.042 94.7842 406.053C94.793 406.064 94.7983 406.078 94.7994 406.092C94.8005 406.106 94.7973 406.12 94.7903 406.132C94.7832 406.144 94.7727 406.154 94.76 406.16C94.6733 406.193 94.5867 406.22 94.5 406.24C94.2133 406.327 94.2133 406.413 94.5 406.5C94.5867 406.527 94.6733 406.553 94.76 406.58C94.7924 406.589 94.8211 406.607 94.8424 406.633C94.8638 406.658 94.8768 406.69 94.88 406.724C94.8832 406.758 94.8764 406.793 94.8604 406.824C94.8444 406.855 94.8199 406.882 94.79 406.9C94.0967 407.28 93.8433 407.85 94.03 408.61C94.0371 408.635 94.0492 408.659 94.0654 408.68C94.0816 408.7 94.1016 408.717 94.1242 408.729C94.1468 408.742 94.1714 408.749 94.1965 408.751C94.2216 408.753 94.2466 408.749 94.27 408.74C94.35 408.713 94.43 408.687 94.51 408.66C94.5967 408.627 94.6533 408.653 94.68 408.74C94.98 409.733 95.5133 410.657 96.28 411.51" stroke="#F85C3A" stroke-width="2"/>
<path d="M490.46 405.26C487.38 405.4 484.14 405.83 481.17 405.8C431.35 405.3 381.34 405.14 331.54 405.98C330.961 405.988 330.405 406.21 329.981 406.603C329.556 406.996 329.292 407.533 329.24 408.11C329.047 410.237 330.053 411.273 332.26 411.22C338.273 411.06 344.29 410.993 350.31 411.02C391.783 411.22 433.257 411.283 474.73 411.21C478.99 411.2 485 410.93 490.3 411.36" stroke="#382669" stroke-width="2"/>
<path d="M490.3 411.36C492.207 415.487 495.357 417.2 499.75 416.5C502.83 416.007 504.927 414.317 506.04 411.43" stroke="#7F8286" stroke-width="2"/>
<path d="M506.04 411.43C524.727 411.523 543.25 411.547 561.61 411.5C565.14 411.49 565.14 408.41 563.81 406.14C563.719 405.988 563.59 405.862 563.437 405.776C563.285 405.69 563.113 405.647 562.94 405.65L506.02 405.98" stroke="#83222F" stroke-width="2"/>
<path d="M506.02 405.98C502.84 398.66 494.3 398.48 490.46 405.26" stroke="#7F8286" stroke-width="2"/>
<path d="M506.02 405.98L506.04 411.43" stroke="#F2929C" stroke-width="2"/>
<path d="M490.3 411.36L490.46 405.26" stroke="#A796D5" stroke-width="2"/>
<path d="M366.94 428.56L366.69 428.32C366.537 428.16 366.393 428.17 366.26 428.35C365.753 429.057 365.673 429.673 366.02 430.2C366.153 430.417 366.362 430.573 366.604 430.636C366.847 430.699 367.106 430.665 367.328 430.541C367.551 430.416 367.72 430.211 367.802 429.965C367.884 429.72 367.873 429.454 367.77 429.22C367.677 428.987 367.497 428.827 367.23 428.74C367.119 428.707 367.019 428.645 366.94 428.56Z" stroke="#7F8286" stroke-width="2"/>
<path d="M221.529 430.456C221.72 430.654 221.99 430.762 222.278 430.754C222.566 430.747 222.849 430.625 223.064 430.417C223.17 430.314 223.257 430.192 223.319 430.059C223.381 429.926 223.417 429.784 223.426 429.642C223.434 429.5 223.414 429.359 223.367 429.229C223.32 429.099 223.247 428.982 223.152 428.884C222.96 428.686 222.69 428.578 222.402 428.586C222.114 428.593 221.832 428.715 221.616 428.923C221.51 429.026 221.423 429.148 221.361 429.281C221.299 429.414 221.263 429.556 221.254 429.698C221.246 429.84 221.266 429.981 221.313 430.111C221.36 430.241 221.433 430.358 221.529 430.456Z" stroke="#7F8286" stroke-width="2"/>
<path d="M108.07 428.79C107.823 428.703 107.56 428.703 107.28 428.79C107.03 428.87 106.84 429.037 106.748 429.256C106.656 429.475 106.669 429.73 106.785 429.971C106.9 430.211 107.109 430.419 107.369 430.552C107.63 430.686 107.923 430.735 108.19 430.69C108.943 430.55 109.073 430.057 108.58 429.21C108.47 429.016 108.289 428.867 108.07 428.79Z" stroke="#7F8286" stroke-width="2"/>
<path d="M255.13 429.392C255.13 429.363 255.124 429.334 255.113 429.307C255.102 429.281 255.085 429.257 255.065 429.236C255.044 429.216 255.02 429.2 254.993 429.189C254.966 429.178 254.938 429.172 254.909 429.173L225.309 429.328C225.28 429.328 225.252 429.334 225.225 429.345C225.198 429.356 225.174 429.372 225.154 429.393C225.134 429.413 225.118 429.438 225.107 429.464C225.096 429.491 225.09 429.52 225.09 429.549C225.09 429.578 225.096 429.606 225.108 429.633C225.119 429.66 225.135 429.684 225.156 429.704C225.176 429.724 225.2 429.74 225.227 429.751C225.254 429.762 225.283 429.768 225.312 429.768L254.911 429.613C254.94 429.612 254.968 429.607 254.995 429.595C255.022 429.584 255.046 429.568 255.066 429.547C255.087 429.527 255.103 429.503 255.114 429.476C255.125 429.449 255.13 429.42 255.13 429.392Z" stroke="#3F4F56" stroke-width="2"/>
<path d="M445.579 429.953C445.58 429.91 445.571 429.867 445.555 429.827C445.539 429.787 445.515 429.75 445.484 429.719C445.454 429.688 445.418 429.664 445.378 429.647C445.338 429.63 445.295 429.621 445.252 429.621L384.813 429.199C384.77 429.199 384.727 429.207 384.687 429.223C384.647 429.24 384.61 429.264 384.579 429.294C384.548 429.324 384.524 429.361 384.507 429.401C384.49 429.441 384.481 429.483 384.481 429.527L384.48 429.567C384.48 429.61 384.488 429.653 384.505 429.693C384.521 429.733 384.545 429.77 384.576 429.801C384.606 429.832 384.642 429.856 384.682 429.873C384.722 429.89 384.765 429.899 384.808 429.899L445.247 430.321C445.29 430.321 445.333 430.313 445.373 430.297C445.413 430.28 445.45 430.256 445.481 430.226C445.512 430.196 445.536 430.159 445.553 430.119C445.57 430.079 445.579 430.037 445.579 429.993L445.579 429.953Z" stroke="#3F4F56" stroke-width="2"/>
<path d="M485.1 431.51C484.233 431.13 483.657 431.403 483.37 432.33C483.263 432.663 483.37 432.903 483.69 433.05C484.19 433.283 484.7 433.227 485.22 432.88C485.338 432.803 485.433 432.695 485.495 432.568C485.557 432.441 485.583 432.3 485.57 432.159C485.558 432.018 485.508 431.884 485.425 431.77C485.342 431.655 485.23 431.566 485.1 431.51Z" stroke="#7F8286" stroke-width="2"/>
<path d="M538.639 432.014C538.639 431.943 538.61 431.874 538.559 431.824C538.508 431.774 538.439 431.745 538.368 431.746L487.088 432.014C487.053 432.015 487.018 432.022 486.985 432.035C486.953 432.049 486.923 432.069 486.898 432.094C486.873 432.12 486.853 432.149 486.84 432.182C486.826 432.215 486.82 432.25 486.82 432.286L486.821 432.446C486.821 432.517 486.85 432.586 486.901 432.636C486.952 432.687 487.021 432.715 487.092 432.714L538.371 432.446C538.407 432.446 538.442 432.438 538.475 432.425C538.507 432.411 538.537 432.391 538.562 432.366C538.587 432.34 538.607 432.311 538.62 432.278C538.633 432.245 538.64 432.21 538.64 432.174L538.639 432.014Z" stroke="#513F4D" stroke-width="2"/>
<path d="M435.97 442.58C435.51 443.407 435.673 444.053 436.46 444.52C436.537 444.566 436.626 444.591 436.716 444.591C436.806 444.592 436.895 444.569 436.973 444.524C437.051 444.479 437.116 444.415 437.161 444.337C437.207 444.259 437.23 444.17 437.23 444.08V442.91C437.233 442.76 437.185 442.613 437.094 442.493C437.004 442.373 436.875 442.287 436.73 442.249C436.584 442.211 436.43 442.223 436.293 442.283C436.155 442.343 436.041 442.448 435.97 442.58Z" stroke="#7F8286" stroke-width="2"/>
<path d="M422.278 445.816C422.546 445.763 422.777 445.58 422.92 445.305C423.063 445.03 423.107 444.688 423.041 444.352C423.008 444.186 422.95 444.026 422.869 443.882C422.788 443.739 422.686 443.614 422.569 443.515C422.452 443.416 422.322 443.344 422.187 443.305C422.052 443.265 421.914 443.258 421.782 443.284C421.514 443.337 421.283 443.521 421.14 443.795C420.997 444.07 420.953 444.413 421.019 444.748C421.052 444.915 421.11 445.074 421.191 445.218C421.272 445.361 421.374 445.486 421.491 445.585C421.608 445.685 421.738 445.756 421.873 445.796C422.008 445.835 422.146 445.842 422.278 445.816Z" stroke="#7F8286" stroke-width="2"/>
<path d="M186.81 445.53C186.723 445.494 186.63 445.477 186.536 445.48C186.442 445.483 186.35 445.507 186.265 445.548C186.181 445.59 186.107 445.649 186.047 445.722C185.988 445.795 185.944 445.879 185.92 445.97C185.667 446.89 185.82 447.453 186.38 447.66C186.665 447.769 187.021 447.786 187.371 447.708C187.72 447.629 188.034 447.462 188.244 447.241C188.453 447.021 188.541 446.767 188.488 446.534C188.435 446.301 188.245 446.109 187.96 446L186.81 445.53Z" stroke="#7F8286" stroke-width="2"/>
<path d="M200.71 446.83L255.41 446.71C255.43 446.71 255.44 446.7 255.44 446.68C255.44 446.667 255.44 446.657 255.44 446.65C255.44 446.617 255.423 446.6 255.39 446.6L207.76 446.29" stroke="#7F8286" stroke-width="2"/>
<path d="M207.76 446.29L190.43 446.27C190.363 446.27 190.323 446.283 190.31 446.31C190.283 446.403 190.253 446.493 190.22 446.58C190.193 446.673 190.23 446.72 190.33 446.72L200.71 446.83" stroke="#3F4F56" stroke-width="2"/>
<path d="M207.76 446.29L200.71 446.83" stroke="#AEC0C2" stroke-width="2"/>
<path d="M391.66 447.732C391.66 447.683 391.65 447.635 391.632 447.59C391.613 447.546 391.586 447.505 391.551 447.471C391.517 447.436 391.476 447.409 391.431 447.391C391.386 447.372 391.338 447.362 391.289 447.363L325.449 447.478C325.401 447.478 325.353 447.487 325.308 447.506C325.263 447.525 325.222 447.552 325.188 447.586C325.154 447.621 325.126 447.662 325.108 447.707C325.089 447.751 325.08 447.8 325.08 447.848L325.08 447.888C325.08 447.937 325.09 447.985 325.109 448.03C325.127 448.075 325.155 448.115 325.189 448.15C325.223 448.184 325.264 448.211 325.309 448.23C325.354 448.248 325.402 448.258 325.451 448.258L391.291 448.143C391.339 448.142 391.387 448.133 391.432 448.114C391.477 448.096 391.518 448.068 391.552 448.034C391.586 447.999 391.614 447.958 391.632 447.914C391.651 447.869 391.66 447.821 391.66 447.772L391.66 447.732Z" stroke="#513F4D" stroke-width="2"/>
<path d="M380.5 467.74C379.333 466.973 378.27 467.033 377.31 467.92C377.023 468.18 377.037 468.42 377.35 468.64C378.21 469.26 379.263 469.22 380.51 468.52" stroke="#7F8286" stroke-width="2"/>
<path d="M380.51 468.52C402.063 468.727 423.623 468.7 445.19 468.44C457.57 468.3 473.82 468.69 488.19 468.06C488.303 468.06 488.377 468.03 488.41 467.97C488.483 467.85 488.453 467.79 488.32 467.79C465.23 467.5 442.15 467.57 419.07 467.24C406.21 467.06 393.353 467.227 380.5 467.74" stroke="#513F4D" stroke-width="2"/>
<path d="M380.51 468.52L380.5 467.74" stroke="#C0B0BA" stroke-width="2"/>
<path d="M63.2399 468.45C65.3399 469.58 66.9299 468.45 68.7999 468.52C83.1199 469.033 97.4399 469.123 111.76 468.79C130.26 468.36 147.83 468.51 165.75 468.52C167.55 468.52 167.637 468.133 166.01 467.36C165.803 467.26 165.297 467.283 164.49 467.43C163.937 467.537 163.44 467.587 163 467.58C131.1 467.387 99.2032 467.293 67.3099 467.3C64.4432 467.3 62.0032 467.457 59.9899 467.77C59.9262 467.775 59.8673 467.806 59.826 467.855C59.7848 467.903 59.7646 467.967 59.7699 468.03C59.7752 468.094 59.8056 468.153 59.8543 468.194C59.9031 468.235 59.9662 468.255 60.0299 468.25H62.4599C62.7399 468.25 62.9999 468.317 63.2399 468.45Z" stroke="#7F8286" stroke-width="2"/>
<path d="M255.11 468.54C254.537 468.207 253.913 468.21 253.24 468.55C253.068 468.639 252.927 468.779 252.839 468.952C252.75 469.125 252.718 469.32 252.747 469.511C252.776 469.702 252.864 469.878 253 470.014C253.135 470.151 253.31 470.24 253.5 470.27C254.427 470.423 255.053 470.1 255.38 469.3C255.433 469.162 255.435 469.01 255.385 468.87C255.336 468.731 255.238 468.614 255.11 468.54Z" stroke="#7F8286" stroke-width="2"/>
<path d="M270.728 469.47C270.73 469.401 270.704 469.334 270.657 469.284C270.609 469.234 270.544 469.205 270.475 469.203L256.52 468.837C256.485 468.837 256.451 468.842 256.42 468.855C256.388 468.867 256.359 468.885 256.334 468.909C256.309 468.932 256.289 468.96 256.275 468.992C256.261 469.023 256.254 469.056 256.253 469.091L256.252 469.111C256.25 469.179 256.276 469.246 256.324 469.296C256.371 469.346 256.436 469.375 256.505 469.377L270.461 469.743C270.495 469.744 270.529 469.738 270.561 469.726C270.592 469.713 270.622 469.695 270.646 469.671C270.671 469.648 270.691 469.62 270.705 469.589C270.719 469.557 270.726 469.524 270.727 469.49L270.728 469.47Z" stroke="#3F4F56" stroke-width="2"/>
<path d="M371.46 486.733C371.46 486.698 371.453 486.663 371.44 486.63C371.426 486.597 371.407 486.567 371.382 486.542C371.357 486.517 371.327 486.497 371.294 486.483C371.261 486.469 371.226 486.462 371.191 486.462L318.411 486.278C318.376 486.278 318.341 486.285 318.308 486.298C318.275 486.312 318.245 486.331 318.22 486.356C318.195 486.381 318.175 486.411 318.161 486.444C318.148 486.476 318.14 486.511 318.14 486.547L318.14 486.587C318.14 486.622 318.147 486.658 318.16 486.69C318.174 486.723 318.194 486.753 318.219 486.778C318.243 486.803 318.273 486.823 318.306 486.837C318.339 486.851 318.374 486.858 318.409 486.858L371.189 487.042C371.224 487.042 371.259 487.035 371.292 487.022C371.325 487.009 371.355 486.989 371.38 486.964C371.405 486.939 371.425 486.909 371.439 486.876C371.453 486.844 371.46 486.809 371.46 486.773L371.46 486.733Z" stroke="#3F4F56" stroke-width="2"/>
<path d="M198.208 490.819C198.444 490.854 198.686 490.781 198.882 490.614C199.077 490.448 199.21 490.203 199.25 489.933C199.27 489.799 199.267 489.663 199.241 489.533C199.214 489.403 199.166 489.281 199.097 489.174C199.029 489.067 198.942 488.977 198.841 488.91C198.741 488.842 198.629 488.799 198.512 488.781C198.276 488.746 198.034 488.82 197.838 488.986C197.643 489.152 197.51 489.397 197.47 489.667C197.45 489.801 197.453 489.937 197.479 490.067C197.506 490.197 197.555 490.319 197.623 490.426C197.692 490.533 197.778 490.623 197.879 490.69C197.979 490.758 198.091 490.801 198.208 490.819Z" stroke="#7F8286" stroke-width="2"/>
<path d="M271.98 489.92C271.98 489.869 271.97 489.818 271.951 489.771C271.931 489.723 271.902 489.68 271.866 489.644C271.83 489.608 271.787 489.579 271.74 489.559C271.693 489.54 271.642 489.529 271.591 489.529L215.111 489.431C215.007 489.431 214.908 489.472 214.835 489.545C214.761 489.618 214.72 489.717 214.72 489.82L214.72 489.84C214.72 489.891 214.73 489.942 214.749 489.989C214.769 490.037 214.798 490.08 214.834 490.116C214.87 490.152 214.913 490.181 214.96 490.201C215.007 490.22 215.058 490.231 215.109 490.231L271.589 490.329C271.693 490.33 271.792 490.289 271.865 490.216C271.938 490.143 271.98 490.043 271.98 489.94L271.98 489.92Z" stroke="#7F8286" stroke-width="2"/>
<path d="M370.6 511.82V512.6C370.6 512.658 370.623 512.714 370.665 512.756C370.706 512.797 370.762 512.82 370.82 512.82H370.99C394.597 512.82 417.237 512.768 433.93 512.677C450.622 512.585 460 512.46 460 512.33V512.09C460 511.96 450.622 511.836 433.93 511.744C417.237 511.652 394.597 511.6 370.99 511.6H370.82C370.762 511.6 370.706 511.623 370.665 511.665C370.623 511.706 370.6 511.762 370.6 511.82Z" stroke="#7F8286" stroke-width="2"/>
<path d="M319.03 519.127C319.03 519.08 319.02 519.033 319.002 518.989C318.984 518.946 318.957 518.906 318.923 518.873C318.89 518.839 318.85 518.813 318.806 518.795C318.763 518.777 318.716 518.768 318.668 518.768L266.129 518.952C266.081 518.952 266.035 518.961 265.991 518.98C265.947 518.998 265.908 519.024 265.875 519.058C265.841 519.092 265.815 519.131 265.797 519.175C265.779 519.219 265.77 519.266 265.77 519.313L265.77 519.353C265.77 519.4 265.78 519.447 265.798 519.491C265.816 519.534 265.843 519.574 265.876 519.607C265.91 519.64 265.95 519.667 265.994 519.685C266.037 519.703 266.084 519.712 266.131 519.712L318.671 519.528C318.718 519.528 318.765 519.519 318.809 519.5C318.852 519.482 318.892 519.455 318.925 519.422C318.959 519.388 318.985 519.349 319.003 519.305C319.021 519.261 319.03 519.214 319.03 519.167L319.03 519.127Z" stroke="#7F8286" stroke-width="2"/>
<path d="M298.2 65.06C297.133 64.8 296.153 64.77 295.26 64.97C295.229 64.9775 295.197 64.9781 295.167 64.9716C295.136 64.9651 295.107 64.9517 295.082 64.9325C295.057 64.9133 295.037 64.8888 295.022 64.8606C295.008 64.8325 295.001 64.8015 295 64.77C295 64.6634 295 64.56 295 64.46C295.001 64.418 294.99 64.3769 294.968 64.3414C294.946 64.3059 294.913 64.2776 294.874 64.2598C294.835 64.242 294.792 64.2353 294.749 64.2407C294.705 64.2461 294.664 64.2632 294.63 64.2901L292.21 66.33L294.86 32.31C295.1 29.2834 295.34 29.2834 295.58 32.31L298.2 65.06Z" fill="#FCB854"/>
<path d="M298.2 65.06C298.8 74.74 299.1 84.47 299.1 94.25C299.1 122.75 299.42 151.24 299.18 179.73C298.153 181.197 297.937 182.987 298.53 185.1C298.983 186.707 299.223 189.6 299.25 193.78L289.86 194.02L290 179.83L290.77 179.74C291.103 179.693 291.27 179.503 291.27 179.17C291.22 131.11 290.09 97.8 292.21 66.33L294.63 64.29C294.664 64.2632 294.705 64.2461 294.748 64.2407C294.792 64.2353 294.835 64.242 294.874 64.2598C294.913 64.2776 294.945 64.3059 294.968 64.3414C294.99 64.3769 295.001 64.418 295 64.46C295 64.56 295 64.6634 295 64.77C295 64.8015 295.008 64.8325 295.022 64.8606C295.037 64.8888 295.057 64.9133 295.082 64.9325C295.107 64.9517 295.136 64.9651 295.167 64.9716C295.197 64.9781 295.229 64.9775 295.26 64.97C296.153 64.77 297.133 64.8 298.2 65.06Z" fill="#FA852F"/>
<path d="M299.18 179.73C315.94 181.017 329.61 187.627 340.19 199.56C352.263 213.187 357.36 229.023 355.48 247.07C353.72 250.77 351.723 252.43 349.49 252.05C346.23 251.497 343.31 251.57 340.73 252.27C346.82 223.68 328.83 196.78 299.25 193.78C299.223 189.6 298.983 186.707 298.53 185.1C297.937 182.987 298.153 181.197 299.18 179.73Z" fill="#F63245"/>
<path d="M290 179.83L289.86 194.02C268.25 197.24 252.83 213.67 250.14 235.07C248.267 235.95 245.743 235.977 242.57 235.15C241.443 234.857 240.653 234.407 240.2 233.8C240.113 233.693 240.02 233.687 239.92 233.78L239.57 234.14C239.457 234.253 239.327 234.277 239.18 234.21C238.553 233.917 238.337 233.393 238.53 232.64C238.61 232.34 238.53 232.087 238.29 231.88C237.977 231.62 237.59 231.433 237.13 231.32C241.76 203.95 262.51 183.49 290 179.83Z" fill="#FCB854"/>
<path d="M299.25 193.78C328.83 196.78 346.82 223.68 340.73 252.27C339.263 258.07 336.65 263.483 332.89 268.51C330.557 271.85 327.387 274.963 323.38 277.85C315.813 283.21 307.263 286.14 297.73 286.64C289.81 286.913 282.17 285.253 274.81 281.66C266.777 277.033 260.513 271.067 256.02 263.76C252.827 257.973 250.883 252.17 250.19 246.35L250.14 235.07C252.83 213.67 268.25 197.24 289.86 194.02L299.25 193.78Z" fill="#101119"/>
<path d="M237.13 231.32C237.59 231.433 237.977 231.62 238.29 231.88C238.53 232.087 238.61 232.34 238.53 232.64C238.337 233.393 238.553 233.917 239.18 234.21C239.327 234.277 239.457 234.253 239.57 234.14L239.92 233.78C240.02 233.687 240.113 233.693 240.2 233.8C240.653 234.407 241.443 234.857 242.57 235.15C245.743 235.977 248.267 235.95 250.14 235.07L250.19 246.35L236.67 246.2C236.303 241.4 236.457 236.44 237.13 231.32Z" fill="#DAAC71"/>
<path d="M398.96 303.25C398.827 303.223 398.737 303.08 398.69 302.82C398.686 302.806 398.678 302.795 398.667 302.786C398.656 302.777 398.642 302.772 398.628 302.771C398.614 302.769 398.6 302.773 398.588 302.78C398.576 302.787 398.566 302.797 398.56 302.81L398.44 303.19C398.42 303.25 398.377 303.273 398.31 303.26C394.403 302.28 390.43 301.653 386.39 301.38C386.337 301.38 386.31 301.407 386.31 301.46C386.31 301.56 386.293 301.647 386.26 301.72C386.087 302.14 386 302.15 386 301.75V301.25C386 301.063 385.94 301.04 385.82 301.18L385.55 301.51C385.25 288.33 384.62 274.31 387.18 261.35C389.107 251.623 390.803 241.88 392.27 232.12C392.278 232.093 392.294 232.069 392.317 232.052C392.339 232.035 392.367 232.026 392.395 232.026C392.423 232.026 392.451 232.035 392.473 232.052C392.496 232.069 392.512 232.093 392.52 232.12C394.44 242.86 396.26 253.647 397.98 264.48C399.97 276.99 399.01 290.58 398.96 303.25Z" fill="#916D81"/>
<path d="M294.03 487.26C294.383 490.5 295.26 493.413 296.66 496C295.2 496.807 293.497 497.063 291.55 496.77C291.378 496.745 291.213 496.683 291.066 496.588C290.919 496.493 290.794 496.368 290.7 496.22C289.967 495.08 289.323 493.503 288.77 491.49C269.76 422.05 244.3 353.06 210.45 288.81C208.69 285.48 207.46 281.88 205.65 278.79C199.37 268.003 192.99 257.277 186.51 246.61C186.33 246.323 186.08 246.233 185.76 246.34C178.25 248.84 172.77 239.69 179 234.87C186.54 229.03 194.02 240.39 187.83 244.85C187.632 244.994 187.494 245.206 187.444 245.445C187.394 245.684 187.435 245.932 187.56 246.14L207.68 279.7C207.784 279.873 207.929 280.017 208.103 280.121C208.276 280.225 208.472 280.284 208.673 280.294C208.875 280.304 209.076 280.264 209.258 280.178C209.441 280.092 209.6 279.962 209.72 279.8C210.94 278.16 212.79 279.64 213.54 281.05C248.53 346.62 273.3 415.35 294.03 487.26Z" fill="#EEF2F2"/>
<path d="M250.19 246.35C250.883 252.17 252.827 257.973 256.02 263.76L243.85 269.22C239.91 262.273 237.517 254.6 236.67 246.2L250.19 246.35Z" fill="#6D8D92"/>
<path d="M355.48 247.07C354.507 254.877 352.39 261.83 349.13 267.93C347.99 268.417 347.163 269.197 346.65 270.27C346.503 270.57 346.277 270.79 345.97 270.93C345.05 271.35 344.557 272.043 344.49 273.01C344.47 273.323 344.35 273.597 344.13 273.83L341 277.2C340.853 277.36 340.683 277.387 340.49 277.28C336.337 274.987 333.803 272.063 332.89 268.51C336.65 263.483 339.263 258.07 340.73 252.27C343.31 251.57 346.23 251.497 349.49 252.05C351.723 252.43 353.72 250.77 355.48 247.07Z" fill="#FA852F"/>
<path d="M525.16 293.22C519.573 293.047 514.043 293.777 508.57 295.41C508.41 295.457 508.27 295.537 508.15 295.65C507.97 295.817 507.773 295.85 507.56 295.75C507.522 295.733 507.49 295.704 507.468 295.668C507.446 295.632 507.435 295.59 507.437 295.548C507.44 295.506 507.454 295.466 507.48 295.432C507.505 295.399 507.54 295.373 507.58 295.36L508.49 295.02C509.123 294.793 509.103 294.683 508.43 294.69L502.98 294.77C502.967 285.397 503.063 276.017 503.27 266.63C503.303 265.19 503.66 264.067 504.34 263.26C507.89 259.07 520.04 260.28 524.71 263.34C525.003 263.533 525.15 263.803 525.15 264.15L525.16 293.22Z" fill="#815D97"/>
<path d="M256.02 263.76C260.513 271.067 266.777 277.033 274.81 281.66C278.057 285.167 282.703 287.127 288.75 287.54C289.19 287.573 289.367 287.807 289.28 288.24C288.713 291.147 288.633 294.06 289.04 296.98C289.062 297.126 289.051 297.275 289.008 297.416C288.964 297.556 288.89 297.684 288.79 297.79L286.94 299.75C267.907 296.31 253.543 286.133 243.85 269.22L256.02 263.76Z" fill="#1991E5"/>
<path d="M349.13 267.93C344.837 275.943 339.123 282.65 331.99 288.05C330.99 287.243 330.1 286.33 329.32 285.31C327.26 282.64 324.77 281.1 323.38 277.85C327.387 274.963 330.557 271.85 332.89 268.51C333.803 272.063 336.337 274.987 340.49 277.28C340.683 277.387 340.853 277.36 341 277.2L344.13 273.83C344.35 273.597 344.47 273.323 344.49 273.01C344.557 272.043 345.05 271.35 345.97 270.93C346.277 270.79 346.503 270.57 346.65 270.27C347.163 269.197 347.99 268.417 349.13 267.93Z" fill="#DAAC71"/>
<path d="M72.7201 313.23C72.9401 314.383 72.8767 315.233 72.5301 315.78C72.4905 315.845 72.4327 315.898 72.3637 315.93C72.2947 315.963 72.2177 315.975 72.1421 315.964C72.0665 315.954 71.9957 315.921 71.9384 315.87C71.8812 315.82 71.84 315.754 71.8201 315.68L71.1001 313.21C71.0001 312.877 70.7867 312.667 70.4601 312.58L62.7201 310.47C62.3734 310.377 62.1234 310.49 61.9701 310.81C61.7234 311.323 61.3734 311.41 60.9201 311.07C60.8504 311.018 60.7707 310.98 60.686 310.96C60.6014 310.941 60.5138 310.939 60.4288 310.955C60.3439 310.971 60.2636 311.004 60.1932 311.054C60.1227 311.103 60.0638 311.166 60.0201 311.24L59.7701 311.66C59.4767 312.153 59.2267 312.13 59.0201 311.59L58.7001 310.75C58.6467 310.617 58.5867 310.613 58.5201 310.74C58.4201 310.947 58.2834 311.02 58.11 310.96L58.0601 282.03C58.0601 281.63 58.2601 281.42 58.6601 281.4L62.9901 281.19C63.2634 281.177 63.4067 281.03 63.4201 280.75L63.7701 271.31C63.7701 271.167 63.827 271.029 63.9282 270.928C64.0295 270.827 64.1668 270.77 64.3101 270.77C64.4533 270.77 64.5906 270.827 64.6919 270.928C64.7932 271.029 64.8501 271.167 64.8501 271.31L65.0601 280.5C65.0667 280.793 65.2167 280.95 65.5101 280.97L71.55 281.45C71.9567 281.483 72.1634 281.703 72.1701 282.11L72.7201 313.23Z" fill="#DAAC71"/>
<path d="M323.38 277.85C324.77 281.1 327.26 282.64 329.32 285.31C330.1 286.33 330.99 287.243 331.99 288.05C322.363 295.497 311.303 299.573 298.81 300.28C300.33 298.527 301.057 297.093 300.99 295.98C300.837 293.58 300.25 290.657 299.23 287.21C299.137 286.89 298.923 286.72 298.59 286.7L297.73 286.64C307.263 286.14 315.813 283.21 323.38 277.85Z" fill="#6D8D92"/>
<path d="M274.81 281.66C282.17 285.253 289.81 286.913 297.73 286.64L298.59 286.7C298.923 286.72 299.137 286.89 299.23 287.21C300.25 290.657 300.837 293.58 300.99 295.98C301.057 297.093 300.33 298.527 298.81 300.28C298.683 345 298.687 382.073 298.82 411.5C298.85 418.46 291.76 419.71 291.76 412.63C291.747 375.33 291.743 337.967 291.75 300.54C291.75 300.418 291.705 300.3 291.623 300.211C291.542 300.122 291.43 300.068 291.31 300.06L286.94 299.75L288.79 297.79C288.89 297.684 288.964 297.556 289.008 297.416C289.051 297.275 289.062 297.126 289.04 296.98C288.633 294.06 288.713 291.147 289.28 288.24C289.367 287.807 289.19 287.573 288.75 287.54C282.703 287.127 278.057 285.167 274.81 281.66Z" fill="#58A0C3"/>
<path d="M435.586 295.826C439.123 295.69 441.886 292.828 441.755 289.434C441.625 286.04 438.651 283.399 435.114 283.535C431.576 283.67 428.814 286.532 428.945 289.926C429.075 293.32 432.048 295.961 435.586 295.826Z" fill="#EEF2F2"/>
<path d="M525.16 293.22L525.24 389.07C525.24 389.517 525.017 389.74 524.57 389.74L498.23 389.78C497.983 389.78 497.853 389.653 497.84 389.4C497.63 383.48 497.95 377.52 497.73 371.61C497.663 369.95 498.49 369.153 500.21 369.22C500.677 369.233 500.917 369.007 500.93 368.54L501.29 354.26C501.297 353.993 501.384 353.735 501.54 353.52C502.307 352.433 502.7 351.51 502.72 350.75C503.04 338.503 503.127 319.843 502.98 294.77L508.43 294.69C509.103 294.683 509.123 294.793 508.49 295.02L507.58 295.36C507.54 295.373 507.505 295.399 507.48 295.432C507.454 295.466 507.44 295.506 507.438 295.548C507.435 295.59 507.446 295.632 507.468 295.668C507.49 295.704 507.522 295.733 507.56 295.75C507.773 295.85 507.97 295.817 508.15 295.65C508.27 295.537 508.41 295.457 508.57 295.41C514.043 293.777 519.573 293.047 525.16 293.22Z" fill="#603AB8"/>
<path d="M422.11 319.28C421.85 318.873 421.713 318.307 421.7 317.58L432.93 296.75C433.037 296.55 433.203 296.46 433.43 296.48C433.543 296.493 433.65 296.5 433.75 296.5C433.99 296.493 434.053 296.593 433.94 296.8L422.11 319.28Z" fill="#EEF2F2"/>
<path d="M398.96 303.25L399.22 338.74L398.99 345.94C398.983 346.147 398.923 346.163 398.81 345.99C398.75 345.903 398.713 345.81 398.7 345.71C398.653 345.45 398.507 345.27 398.26 345.17C395.94 344.263 393.7 344.52 391.54 345.94C391.394 346.034 391.228 346.093 391.057 346.114C390.885 346.135 390.712 346.116 390.55 346.06C388.57 345.393 386.88 345.52 385.48 346.44L385.55 301.51L385.82 301.18C385.94 301.04 386 301.063 386 301.25V301.75C386 302.15 386.087 302.14 386.26 301.72C386.293 301.647 386.31 301.56 386.31 301.46C386.31 301.407 386.337 301.38 386.39 301.38C390.43 301.653 394.403 302.28 398.31 303.26C398.377 303.273 398.42 303.25 398.44 303.19L398.56 302.81C398.566 302.797 398.576 302.787 398.588 302.78C398.6 302.773 398.614 302.77 398.628 302.771C398.642 302.772 398.656 302.777 398.667 302.786C398.678 302.795 398.686 302.807 398.69 302.82C398.737 303.08 398.827 303.223 398.96 303.25Z" fill="#815D97"/>
<path d="M172.14 347.09C171.067 346.197 169.68 345.907 167.98 346.22C166.453 346.5 164.847 346.747 163.16 346.96C163.001 346.979 162.852 347.053 162.738 347.169C162.624 347.285 162.551 347.436 162.53 347.6C162.317 349.34 161.737 350.577 160.79 351.31L160.76 304.32C160.76 303.907 160.967 303.7 161.38 303.7L171.45 303.58C171.923 303.573 172.16 303.807 172.16 304.28L172.14 347.09Z" fill="#DAAC71"/>
<path d="M457.01 353.24C456.043 352.8 455.293 352.857 454.76 353.41C454.52 353.65 454.273 353.657 454.02 353.43C453.167 352.67 452.187 352.457 451.08 352.79C450.943 352.831 450.798 352.84 450.658 352.818C450.518 352.795 450.385 352.741 450.27 352.66C448.05 351.08 445.793 350.573 443.5 351.14L443.54 304.16C443.54 304.079 443.556 303.999 443.587 303.924C443.619 303.85 443.664 303.782 443.722 303.725C443.78 303.668 443.848 303.624 443.923 303.594C443.999 303.563 444.079 303.549 444.16 303.55L455.92 303.63C456.122 303.63 456.315 303.709 456.457 303.85C456.6 303.99 456.68 304.181 456.68 304.38L457.01 353.24Z" fill="#815D97"/>
<path d="M72.72 313.23L74.31 343.47C74.1167 343.697 74.0034 344.017 73.97 344.43C73.9367 344.923 73.85 344.933 73.71 344.46C72.98 342 73.63 339.51 72.51 337.53C71.43 335.603 69.6367 334.85 67.13 335.27C66.89 335.31 66.7067 335.433 66.58 335.64L66.36 336.01C66.2951 336.119 66.2054 336.211 66.098 336.281C65.9905 336.35 65.8681 336.394 65.74 336.41L58.91 337.23C58.4967 337.277 58.2767 337.51 58.25 337.93L58.03 342.01L58.11 310.96C58.2833 311.02 58.42 310.947 58.52 310.74C58.5867 310.613 58.6467 310.617 58.7 310.75L59.02 311.59C59.2267 312.13 59.4767 312.153 59.77 311.66L60.02 311.24C60.0637 311.166 60.1227 311.103 60.1931 311.054C60.2636 311.004 60.3439 310.971 60.4288 310.955C60.5137 310.939 60.6014 310.941 60.686 310.96C60.7706 310.98 60.8504 311.018 60.92 311.07C61.3734 311.41 61.7234 311.323 61.97 310.81C62.1234 310.49 62.3734 310.377 62.72 310.47L70.46 312.58C70.7867 312.667 71 312.877 71.1 313.21L71.82 315.68C71.84 315.754 71.8812 315.82 71.9384 315.87C71.9957 315.921 72.0665 315.954 72.1421 315.964C72.2177 315.975 72.2947 315.963 72.3637 315.93C72.4326 315.898 72.4905 315.845 72.53 315.78C72.8767 315.233 72.94 314.383 72.72 313.23Z" fill="#E09166"/>
<path d="M421.7 317.58C421.713 318.307 421.85 318.873 422.11 319.28L422.22 343.95L404.01 342.43C403.977 335.857 403.983 329.207 404.03 322.48C404.043 320.613 404.79 319.753 406.27 319.9C406.363 319.908 406.457 319.897 406.545 319.867C406.633 319.837 406.714 319.789 406.783 319.726C406.852 319.663 406.907 319.587 406.944 319.501C406.981 319.416 407 319.323 407 319.23V313.8C407 313.677 407.048 313.559 407.134 313.471C407.22 313.383 407.337 313.333 407.46 313.33L419.37 313.03C420.683 312.997 421.393 313.637 421.5 314.95L421.7 317.58Z" fill="#916D81"/>
<path d="M313.95 352.01C311.397 349.343 308.67 349.08 305.77 351.22L306.1 315.34C306.1 314.947 306.297 314.75 306.69 314.75H313.3C313.76 314.75 313.99 314.98 313.99 315.44L313.95 352.01Z" fill="#DAAC71"/>
<path d="M139.5 355.51L139.22 353.78C139.173 353.5 139.033 353.28 138.8 353.12C135.193 350.64 131.22 349.98 126.88 351.14C126.38 351.273 126.263 351.12 126.53 350.68L126.7 350.39C126.732 350.339 126.746 350.279 126.741 350.219C126.735 350.16 126.709 350.104 126.668 350.06C126.627 350.016 126.572 349.988 126.512 349.979C126.453 349.97 126.392 349.981 126.34 350.01L124.38 351.07C124.313 351.103 124.273 351.083 124.26 351.01L124.2 350.53C124.195 350.479 124.173 350.431 124.139 350.393C124.104 350.355 124.059 350.329 124.008 350.319C123.958 350.309 123.906 350.315 123.859 350.337C123.813 350.359 123.774 350.395 123.75 350.44L123.27 351.27L123.26 340.46C123.26 340.272 123.335 340.091 123.468 339.958C123.601 339.825 123.782 339.75 123.97 339.75H125.8C126.167 339.75 126.357 339.567 126.37 339.2L126.84 326.05C126.873 325.183 127.323 324.75 128.19 324.75H131.43C131.71 324.75 131.847 324.61 131.84 324.33L131.72 315.68C131.719 315.591 131.735 315.503 131.768 315.421C131.801 315.338 131.85 315.263 131.913 315.2C131.975 315.136 132.049 315.086 132.131 315.052C132.213 315.018 132.301 315 132.39 315H138.26C138.516 315 138.761 315.101 138.942 315.281C139.124 315.46 139.227 315.704 139.23 315.96L139.5 355.51Z" fill="#E09166"/>
<path d="M341.42 359.7C340.267 358.573 338.253 358.123 335.38 358.35C342.96 341.943 350.77 327.93 358.81 316.31C360.97 313.18 366.09 315.83 363.46 319.96C355.32 332.78 347.973 346.027 341.42 359.7Z" fill="#58A0C3"/>
<path d="M545.05 389.71L530.26 389.77C529.82 389.77 529.597 389.55 529.59 389.11C529.33 369.27 529.213 349.4 529.24 329.5C529.25 324.63 534.32 322.15 538.06 320.42C538.208 320.353 538.372 320.327 538.534 320.344C538.696 320.362 538.85 320.423 538.98 320.52C541.52 322.42 546.23 324.85 546.24 329.09C546.26 349.137 546.26 368.943 546.24 388.51C546.24 388.827 546.115 389.13 545.892 389.355C545.669 389.58 545.367 389.707 545.05 389.71Z" fill="#D92E63"/>
<path d="M114.24 344.49C114.08 344.63 113.997 344.837 113.99 345.11C113.977 345.377 113.84 345.537 113.58 345.59C110.76 346.17 107.913 347.4 105.04 349.28C104.987 341.62 104.977 334.193 105.01 327C105.03 322.8 111.68 321.58 113.54 325.37C115.27 328.89 114.26 340.16 114.24 344.49Z" fill="#E09166"/>
<path d="M274.64 342.8L276.29 343.07C276.777 343.15 277.027 342.943 277.04 342.45L277.33 326.72C277.337 326.42 277.487 326.27 277.78 326.27L283.23 326.21C284.217 326.203 284.71 326.69 284.71 327.67L284.77 389.28C284.77 389.693 284.563 389.923 284.15 389.97C282.02 390.21 280.54 389.2 279.61 387.19C274.363 375.83 269.297 364.393 264.41 352.88C263.87 351.61 263.6 350.15 263.21 348.83C263.163 348.677 263.153 348.515 263.179 348.356C263.205 348.196 263.267 348.044 263.36 347.91C265.47 344.86 264.49 335.09 264.76 330.97C264.787 330.657 264.957 330.5 265.27 330.5H273.21C273.337 330.5 273.458 330.549 273.55 330.636C273.641 330.724 273.695 330.844 273.7 330.97L274.07 342.15C274.083 342.523 274.273 342.74 274.64 342.8Z" fill="#E95B5B"/>
<path d="M201.18 355.47C201.027 355.99 200.4 356.547 199.3 357.14C197.53 358.09 195.64 357.75 193.67 357.8C193.41 357.807 193.273 357.68 193.26 357.42C193.247 357.2 193.167 357.057 193.02 356.99L193.23 334.23C193.23 333.743 193.473 333.5 193.96 333.5H198.75C199.041 333.501 199.329 333.561 199.596 333.678C199.862 333.794 200.102 333.965 200.299 334.178C200.496 334.391 200.647 334.643 200.742 334.917C200.837 335.191 200.873 335.481 200.85 335.77C200.323 342.563 200.433 349.13 201.18 355.47Z" fill="#E09166"/>
<path d="M74.31 343.47L74.29 389.15C74.29 389.537 74.0967 389.733 73.71 389.74L58.56 389.86C58.2 389.867 58.02 389.69 58.02 389.33L58.03 342.01L58.25 337.93C58.2767 337.51 58.4967 337.277 58.91 337.23L65.74 336.41C65.8681 336.394 65.9905 336.35 66.098 336.281C66.2054 336.211 66.2951 336.119 66.36 336.01L66.58 335.64C66.7067 335.433 66.89 335.31 67.13 335.27C69.6367 334.85 71.43 335.603 72.51 337.53C73.63 339.51 72.98 342 73.71 344.46C73.85 344.933 73.9367 344.923 73.97 344.43C74.0034 344.017 74.1167 343.697 74.31 343.47Z" fill="#E95B5B"/>
<path d="M99.98 381.56C99.14 372.46 98.9433 363.263 99.39 353.97C99.4221 353.32 99.2052 352.682 98.7835 352.186C98.3618 351.69 97.7669 351.373 97.12 351.3C93.3667 350.873 89.2867 350.12 84.88 349.04C84.62 348.973 84.3733 348.977 84.14 349.05C84.0267 349.083 83.9133 349.13 83.8 349.19C83.5 349.33 83.2 349.333 82.9 349.2L81.9 348.75C81.55 348.591 81.1618 348.537 80.7817 348.593C80.4016 348.65 80.0458 348.814 79.7568 349.067C79.4678 349.32 79.2578 349.651 79.1519 350.021C79.0461 350.39 79.0489 350.782 79.16 351.15C79.54 352.41 79.3 353.593 78.44 354.7C78.431 354.711 78.4196 354.719 78.4068 354.725C78.394 354.731 78.3803 354.733 78.3671 354.732C78.3539 354.731 78.3417 354.726 78.3317 354.719C78.3217 354.712 78.3142 354.702 78.31 354.69L78.2 354.34C78.1994 354.333 78.1974 354.327 78.1943 354.321C78.1912 354.315 78.1869 354.31 78.1818 354.306C78.1767 354.302 78.1708 354.299 78.1645 354.297C78.1582 354.295 78.1516 354.294 78.145 354.295C78.1384 354.296 78.1321 354.298 78.1263 354.301C78.1204 354.304 78.1153 354.308 78.1111 354.313C78.1069 354.318 78.1038 354.324 78.1019 354.331C78.1 354.337 78.0993 354.343 78.1 354.35C78.0467 354.77 77.9433 355.073 77.79 355.26L77.76 335.76C77.76 335.625 77.8137 335.495 77.9094 335.399C78.005 335.304 78.1347 335.25 78.27 335.25H99.49C99.8233 335.25 99.99 335.42 99.99 335.76L99.98 381.56Z" fill="#E09166"/>
<path d="M399.22 338.74L399.24 389.25C399.24 389.383 399.187 389.51 399.094 389.604C399 389.697 398.873 389.75 398.74 389.75H386.72C386.127 389.75 385.827 389.453 385.82 388.86L385.48 346.44C386.88 345.52 388.57 345.393 390.55 346.06C390.712 346.116 390.885 346.135 391.057 346.114C391.228 346.093 391.394 346.034 391.54 345.94C393.7 344.52 395.94 344.263 398.26 345.17C398.507 345.27 398.653 345.45 398.7 345.71C398.713 345.81 398.75 345.903 398.81 345.99C398.923 346.163 398.983 346.147 398.99 345.94L399.22 338.74Z" fill="#603AB8"/>
<path d="M216 345.92V341.16C216 341.008 216.06 340.862 216.166 340.753C216.273 340.645 216.418 340.583 216.57 340.58L224.16 340.46C224.237 340.459 224.313 340.473 224.385 340.501C224.457 340.53 224.522 340.572 224.577 340.626C224.631 340.68 224.675 340.745 224.705 340.816C224.735 340.887 224.75 340.963 224.75 341.04V389.17C224.75 389.324 224.689 389.471 224.58 389.58C224.471 389.689 224.324 389.75 224.17 389.75H210.66C210.583 389.75 210.507 389.735 210.436 389.705C210.365 389.675 210.3 389.632 210.246 389.577C210.192 389.522 210.15 389.457 210.121 389.385C210.093 389.314 210.079 389.237 210.08 389.16L210.75 347.07C210.753 346.918 210.815 346.773 210.923 346.666C211.032 346.56 211.178 346.5 211.33 346.5H215.42C215.574 346.5 215.721 346.439 215.83 346.33C215.939 346.221 216 346.074 216 345.92Z" fill="#E95B5B"/>
<path d="M381.11 349.99L381.01 355.98C381.009 356.069 380.985 356.156 380.941 356.234C380.897 356.311 380.834 356.376 380.759 356.423C380.683 356.47 380.597 356.497 380.508 356.502C380.419 356.507 380.33 356.489 380.25 356.45L378.22 355.48C378.187 355.467 378.15 355.457 378.11 355.45C376.43 355.243 374.767 354.95 373.12 354.57C369.16 353.63 365.1 354.07 361.05 353.58C359.34 353.38 357.64 353.97 355.8 353.59C355.4 353.503 355.377 353.353 355.73 353.14L355.99 352.99C356.143 352.897 356.14 352.82 355.98 352.76L354.41 352.15L359.34 341.34C359.48 341.027 359.72 340.87 360.06 340.87L380.44 340.65C380.807 340.643 380.993 340.827 381 341.2L381.11 349.99Z" fill="#916D81"/>
<path d="M422.22 343.95L422.23 373.27L421.95 372.22C421.87 371.913 421.673 371.74 421.36 371.7C417.76 371.25 414.27 369.86 410.82 370C408.567 370.087 406.303 370.293 404.03 370.62L404.01 342.43L422.22 343.95Z" fill="#815D97"/>
<path d="M148.53 347.08L155.99 347.27C156.663 347.283 157 347.627 157 348.3V388.97C157 389.177 156.918 389.375 156.771 389.522C156.625 389.668 156.427 389.75 156.22 389.75H143.03C142.75 389.75 142.607 389.61 142.6 389.33C142.127 374.357 142.16 359.38 142.7 344.4C142.708 344.228 142.782 344.065 142.906 343.945C143.031 343.826 143.197 343.76 143.37 343.76H147.2C147.387 343.76 147.567 343.831 147.702 343.959C147.838 344.088 147.92 344.263 147.93 344.45L148.04 346.59C148.053 346.91 148.217 347.073 148.53 347.08Z" fill="#E95B5B"/>
<path d="M114.24 344.49V389.01C114.24 389.206 114.162 389.394 114.023 389.533C113.885 389.672 113.696 389.75 113.5 389.75H105.27C104.963 389.75 104.81 389.593 104.81 389.28L105.04 349.28C107.913 347.4 110.76 346.17 113.58 345.59C113.84 345.537 113.977 345.377 113.99 345.11C113.997 344.837 114.08 344.63 114.24 344.49Z" fill="#E95B5B"/>
<path d="M172.14 347.09C172.467 347.377 173.103 347.523 174.05 347.53C174.517 347.53 174.75 347.763 174.75 348.23V389C174.75 389.199 174.671 389.39 174.53 389.53C174.39 389.671 174.199 389.75 174 389.75H161.51C161.097 389.75 160.89 389.543 160.89 389.13L160.79 351.31C161.737 350.577 162.317 349.34 162.53 347.6C162.551 347.436 162.624 347.285 162.738 347.169C162.852 347.053 163.001 346.979 163.16 346.96C164.847 346.747 166.453 346.5 167.98 346.22C169.68 345.907 171.067 346.197 172.14 347.09Z" fill="#E95B5B"/>
<path d="M99.98 381.56L100.19 389.29C100.197 389.597 100.047 389.75 99.74 389.75H78.26C77.92 389.75 77.75 389.58 77.75 389.24L77.79 355.26C77.9433 355.073 78.0467 354.77 78.1 354.35C78.0993 354.343 78.1 354.337 78.1019 354.331C78.1038 354.324 78.1069 354.318 78.1111 354.313C78.1153 354.308 78.1204 354.304 78.1263 354.301C78.1321 354.298 78.1384 354.296 78.145 354.295C78.1516 354.294 78.1582 354.295 78.1645 354.297C78.1708 354.299 78.1767 354.302 78.1818 354.306C78.1869 354.31 78.1912 354.315 78.1943 354.321C78.1974 354.327 78.1994 354.334 78.2 354.34L78.31 354.69C78.3142 354.702 78.3217 354.712 78.3317 354.719C78.3417 354.727 78.3539 354.731 78.3671 354.732C78.3803 354.733 78.394 354.731 78.4068 354.725C78.4196 354.719 78.431 354.711 78.44 354.7C79.3 353.593 79.54 352.41 79.16 351.15C79.0489 350.782 79.0461 350.39 79.1519 350.021C79.2578 349.652 79.4678 349.32 79.7568 349.067C80.0458 348.814 80.4016 348.65 80.7817 348.593C81.1618 348.537 81.55 348.591 81.9 348.75L82.9 349.2C83.2 349.333 83.5 349.33 83.8 349.19C83.9133 349.13 84.0267 349.083 84.14 349.05C84.3733 348.977 84.62 348.973 84.88 349.04C89.2867 350.12 93.3667 350.873 97.12 351.3C97.7669 351.373 98.3618 351.69 98.7835 352.186C99.2052 352.682 99.4221 353.32 99.39 353.97C98.9433 363.263 99.14 372.46 99.98 381.56Z" fill="#E95B5B"/>
<path d="M313.95 352.01L320.71 351.9C320.99 351.9 321.14 352.04 321.16 352.32C321.573 357.033 321.007 361.407 319.46 365.44C315.353 376.153 312.447 383.893 310.74 388.66C310.6 389.053 310.32 389.267 309.9 389.3L306.34 389.57C305.953 389.597 305.76 389.417 305.76 389.03L305.77 351.22C308.67 349.08 311.397 349.343 313.95 352.01Z" fill="#E95B5B"/>
<path d="M139.5 355.51L139.47 389.24C139.47 389.58 139.3 389.75 138.96 389.75H123.77C123.437 389.75 123.27 389.583 123.27 389.25V351.27L123.75 350.44C123.774 350.395 123.813 350.359 123.859 350.337C123.906 350.315 123.958 350.309 124.008 350.319C124.059 350.329 124.104 350.355 124.139 350.393C124.173 350.431 124.195 350.479 124.2 350.53L124.26 351.01C124.273 351.083 124.313 351.103 124.38 351.07L126.34 350.01C126.392 349.981 126.453 349.97 126.513 349.979C126.572 349.988 126.627 350.016 126.668 350.06C126.709 350.104 126.735 350.16 126.741 350.219C126.746 350.279 126.732 350.339 126.7 350.39L126.53 350.68C126.263 351.12 126.38 351.273 126.88 351.14C131.22 349.98 135.193 350.64 138.8 353.12C139.033 353.28 139.173 353.5 139.22 353.78L139.5 355.51Z" fill="#E95B5B"/>
<path d="M381.11 349.99L380.95 375.78C374.43 374.113 367.867 373.56 361.26 374.12C358.11 374.39 355.42 374.02 352.41 373.68C349.91 373.4 347.48 374.39 344.75 374.03L354.41 352.15L355.98 352.76C356.14 352.82 356.143 352.897 355.99 352.99L355.73 353.14C355.377 353.353 355.4 353.503 355.8 353.59C357.64 353.97 359.34 353.38 361.05 353.58C365.1 354.07 369.16 353.63 373.12 354.57C374.767 354.95 376.43 355.243 378.11 355.45C378.15 355.457 378.187 355.467 378.22 355.48L380.25 356.45C380.33 356.489 380.419 356.506 380.508 356.502C380.597 356.497 380.683 356.47 380.759 356.423C380.835 356.376 380.897 356.311 380.941 356.234C380.985 356.156 381.009 356.069 381.01 355.98L381.11 349.99Z" fill="#815D97"/>
<path d="M457.01 353.24L457.56 369.97C457.563 370.076 457.59 370.18 457.638 370.275C457.687 370.371 457.755 370.454 457.84 370.52L459.27 371.65C459.543 371.863 459.727 372.133 459.82 372.46C460.627 375.327 460.197 377.9 458.53 380.18C458.343 380.44 458.25 380.733 458.25 381.06V389.22C458.25 389.533 458.093 389.693 457.78 389.7L444.3 389.77C443.993 389.77 443.84 389.62 443.84 389.32L443.5 351.14C445.793 350.573 448.05 351.08 450.27 352.66C450.385 352.741 450.518 352.795 450.658 352.818C450.798 352.84 450.943 352.831 451.08 352.79C452.187 352.457 453.167 352.67 454.02 353.43C454.273 353.657 454.52 353.65 454.76 353.41C455.293 352.857 456.043 352.8 457.01 353.24Z" fill="#603AB8"/>
<path d="M486.26 389.81C486.164 389.813 486.07 389.778 485.999 389.712C485.928 389.647 485.885 389.556 485.88 389.46C485.307 379.24 485.347 369.023 486 358.81C486.019 358.464 486.141 358.128 486.35 357.84C487.483 356.307 487.83 354.567 487.39 352.62C487.374 352.547 487.374 352.472 487.39 352.4C487.406 352.327 487.439 352.259 487.485 352.201C487.531 352.142 487.589 352.095 487.656 352.062C487.723 352.029 487.796 352.011 487.87 352.01L491.34 351.99C491.74 351.99 491.94 352.19 491.94 352.59L492.31 388.95C492.317 389.457 492.063 389.717 491.55 389.73L486.26 389.81Z" fill="#603AB8"/>
<path d="M189.818 353.537L181.438 353.464C181.041 353.461 180.715 353.78 180.712 354.178L180.408 388.976C180.405 389.374 180.724 389.699 181.122 389.703L189.502 389.776C189.899 389.779 190.224 389.46 190.228 389.062L190.532 354.263C190.535 353.866 190.216 353.541 189.818 353.537Z" fill="#E95B5B"/>
<path d="M193.02 356.99C193.167 357.057 193.247 357.2 193.26 357.42C193.273 357.68 193.41 357.807 193.67 357.8C195.64 357.75 197.53 358.09 199.3 357.14C200.4 356.547 201.027 355.99 201.18 355.47L205.91 355.1C206.31 355.073 206.51 355.26 206.51 355.66L206.49 389.13C206.49 389.543 206.283 389.75 205.87 389.75H193.5C193.37 389.75 193.245 389.698 193.154 389.606C193.062 389.515 193.01 389.39 193.01 389.26L193.02 356.99Z" fill="#E95B5B"/>
<path d="M335.38 358.35C338.253 358.123 340.267 358.573 341.42 359.7C322.31 401.57 309.6 445.67 299.49 489.95C298.937 492.363 297.993 494.38 296.66 496C295.26 493.413 294.383 490.5 294.03 487.26C294.13 485.9 294.487 484.073 295.1 481.78C298.35 469.61 302.17 452.86 305.94 439.62C314.05 411.1 322.94 385.34 335.38 358.35Z" fill="#1991E5"/>
<path d="M237.21 369.99C238.017 369.997 238.363 369.61 238.25 368.83C238.17 368.27 238.34 368.18 238.76 368.56C242.58 372.03 244.05 382.43 245.66 389.22C245.747 389.573 245.607 389.75 245.24 389.75H229.5C229.173 389.75 229.01 389.583 229.01 389.25L228.94 365.66C228.939 365.574 228.955 365.488 228.987 365.408C229.019 365.328 229.066 365.255 229.127 365.194C229.187 365.132 229.259 365.084 229.339 365.05C229.418 365.017 229.504 365 229.59 365H235.35C235.75 365 235.98 365.197 236.04 365.59L236.58 369.44C236.633 369.807 236.843 369.99 237.21 369.99Z" fill="#E95B5B"/>
<path d="M476.8 370.91C477.56 369.703 478.67 369.25 480.13 369.55C480.51 369.63 480.7 369.867 480.7 370.26L480.77 389.11C480.77 389.537 480.56 389.75 480.14 389.75H470.47C470.116 389.75 469.937 389.573 469.93 389.22L469.68 373.6C469.676 373.452 469.729 373.308 469.826 373.195C469.924 373.083 470.061 373.01 470.21 372.99L474.36 372.47C474.856 372.408 475.333 372.235 475.755 371.966C476.177 371.696 476.534 371.335 476.8 370.91Z" fill="#603AB8"/>
<path d="M422.23 373.27L422.24 389.24C422.24 389.375 422.186 389.505 422.091 389.601C421.995 389.696 421.865 389.75 421.73 389.75H404.75C404.41 389.75 404.237 389.58 404.23 389.24L404.03 370.62C406.303 370.293 408.567 370.087 410.82 370C414.27 369.86 417.76 371.25 421.36 371.7C421.673 371.74 421.87 371.913 421.95 372.22L422.23 373.27Z" fill="#603AB8"/>
<path d="M567.37 369.713L553.81 369.808C553.369 369.811 553.013 370.171 553.016 370.613L553.144 388.993C553.147 389.435 553.508 389.79 553.95 389.787L567.51 389.692C567.951 389.689 568.307 389.329 568.304 388.887L568.176 370.507C568.173 370.066 567.812 369.71 567.37 369.713Z" fill="#D92E63"/>
<path d="M380.95 375.78L380.97 389.22C380.977 389.56 380.807 389.73 380.46 389.73L339.76 390.08C338.867 390.087 338.583 389.677 338.91 388.85L344.75 374.03C347.48 374.39 349.91 373.4 352.41 373.68C355.42 374.02 358.11 374.39 361.26 374.12C367.867 373.56 374.43 374.113 380.95 375.78Z" fill="#603AB8"/>
<path d="M46.74 405.5L47.09 410.98C45.59 412.9 44.16 415.19 41.75 415.93C37.0967 417.37 33.7467 416.243 31.7 412.55C25.78 401.84 42.06 394.6 46.74 405.5Z" fill="#EEF2F2"/>
<path d="M506.02 405.98L506.04 411.43C504.927 414.317 502.83 416.007 499.75 416.5C495.357 417.2 492.207 415.487 490.3 411.36L490.46 405.26C494.3 398.48 502.84 398.66 506.02 405.98Z" fill="#EEF2F2"/>
<path d="M490.46 405.26L490.3 411.36C485 410.93 478.99 411.2 474.73 411.21C433.257 411.283 391.783 411.22 350.31 411.02C344.29 410.993 338.273 411.06 332.26 411.22C330.053 411.273 329.047 410.237 329.24 408.11C329.292 407.533 329.556 406.996 329.981 406.603C330.405 406.21 330.961 405.988 331.54 405.98C381.34 405.14 431.35 405.3 481.17 405.8C484.14 405.83 487.38 405.4 490.46 405.26Z" fill="#603AB8"/>
<path d="M46.74 405.5L92.74 405.51L94.75 406.03C94.7635 406.034 94.7754 406.042 94.7842 406.053C94.793 406.064 94.7983 406.078 94.7994 406.092C94.8005 406.106 94.7973 406.12 94.7903 406.132C94.7832 406.144 94.7727 406.154 94.76 406.16C94.6733 406.193 94.5867 406.22 94.5 406.24C94.2133 406.327 94.2133 406.413 94.5 406.5C94.5867 406.527 94.6733 406.553 94.76 406.58C94.7924 406.589 94.8211 406.607 94.8424 406.633C94.8638 406.658 94.8768 406.69 94.88 406.724C94.8832 406.758 94.8764 406.793 94.8604 406.824C94.8444 406.855 94.8199 406.882 94.79 406.9C94.0967 407.28 93.8433 407.85 94.03 408.61C94.0371 408.635 94.0492 408.659 94.0654 408.68C94.0816 408.7 94.1016 408.717 94.1242 408.729C94.1468 408.742 94.1714 408.749 94.1965 408.751C94.2216 408.753 94.2466 408.749 94.27 408.74C94.35 408.713 94.43 408.687 94.51 408.66C94.5967 408.627 94.6533 408.653 94.68 408.74C94.98 409.733 95.5133 410.657 96.28 411.51L47.09 410.98L46.74 405.5Z" fill="#FA852F"/>
<path d="M92.74 405.51L253.2 405.92C253.713 405.92 254.03 406.167 254.15 406.66L254.9 409.71C254.944 409.884 254.92 410.067 254.832 410.224C254.745 410.38 254.601 410.497 254.43 410.55C252.53 411.15 250.72 411.457 249 411.47C198.09 411.91 147.17 411.41 96.28 411.51C95.5133 410.657 94.98 409.733 94.68 408.74C94.6533 408.653 94.5967 408.627 94.51 408.66C94.43 408.687 94.35 408.713 94.27 408.74C94.2466 408.749 94.2216 408.753 94.1965 408.751C94.1714 408.749 94.1468 408.742 94.1242 408.729C94.1016 408.717 94.0816 408.7 94.0654 408.68C94.0492 408.659 94.0371 408.635 94.03 408.61C93.8433 407.85 94.0967 407.28 94.79 406.9C94.8199 406.882 94.8444 406.855 94.8604 406.824C94.8764 406.793 94.8832 406.758 94.88 406.724C94.8768 406.69 94.8638 406.658 94.8424 406.633C94.8211 406.607 94.7924 406.589 94.76 406.58C94.6733 406.553 94.5867 406.527 94.5 406.5C94.2133 406.413 94.2133 406.327 94.5 406.24C94.5867 406.22 94.6733 406.193 94.76 406.16C94.7727 406.154 94.7832 406.144 94.7903 406.132C94.7973 406.12 94.8005 406.106 94.7994 406.092C94.7983 406.078 94.793 406.064 94.7842 406.053C94.7754 406.042 94.7635 406.034 94.75 406.03L92.74 405.51Z" fill="#F63245"/>
<path d="M506.04 411.43L506.02 405.98L562.94 405.65C563.113 405.647 563.285 405.69 563.437 405.776C563.59 405.862 563.719 405.988 563.81 406.14C565.14 408.41 565.14 411.49 561.61 411.5C543.25 411.547 524.727 411.523 506.04 411.43Z" fill="#F63245"/>
<path d="M367.23 428.74C367.497 428.827 367.677 428.987 367.77 429.22C367.873 429.454 367.884 429.72 367.802 429.965C367.72 430.211 367.551 430.416 367.328 430.541C367.106 430.665 366.847 430.699 366.604 430.636C366.362 430.573 366.153 430.417 366.02 430.2C365.673 429.673 365.753 429.057 366.26 428.35C366.393 428.17 366.537 428.16 366.69 428.32L366.94 428.56C367.019 428.645 367.119 428.707 367.23 428.74Z" fill="#EEF2F2"/>
<path d="M221.616 428.923C221.168 429.357 221.129 430.044 221.529 430.456C221.928 430.869 222.616 430.851 223.064 430.417C223.512 429.983 223.551 429.296 223.151 428.884C222.752 428.471 222.064 428.489 221.616 428.923Z" fill="#EEF2F2"/>
<path d="M108.07 428.79C108.289 428.867 108.47 429.016 108.58 429.21C109.073 430.057 108.943 430.55 108.19 430.69C107.923 430.735 107.63 430.686 107.369 430.552C107.109 430.419 106.9 430.211 106.785 429.97C106.669 429.73 106.656 429.475 106.748 429.256C106.84 429.037 107.03 428.87 107.28 428.79C107.56 428.703 107.823 428.703 108.07 428.79Z" fill="#EEF2F2"/>
<path d="M254.909 429.172L225.309 429.327C225.188 429.328 225.09 429.427 225.09 429.549C225.091 429.67 225.19 429.768 225.311 429.767L254.911 429.612C255.033 429.612 255.13 429.513 255.13 429.391C255.129 429.27 255.03 429.172 254.909 429.172Z" fill="#6D8D92"/>
<path d="M445.252 429.621L384.813 429.199C384.631 429.198 384.482 429.345 384.481 429.527L384.481 429.567C384.479 429.749 384.626 429.898 384.808 429.899L445.247 430.321C445.429 430.322 445.578 430.176 445.579 429.993L445.579 429.953C445.581 429.771 445.434 429.622 445.252 429.621Z" fill="#6D8D92"/>
<path d="M485.1 431.51C485.23 431.566 485.342 431.655 485.425 431.77C485.508 431.884 485.558 432.018 485.57 432.159C485.583 432.3 485.557 432.441 485.495 432.568C485.433 432.695 485.338 432.803 485.22 432.88C484.7 433.227 484.19 433.283 483.69 433.05C483.37 432.903 483.263 432.663 483.37 432.33C483.657 431.403 484.233 431.13 485.1 431.51Z" fill="#EEF2F2"/>
<path d="M538.368 431.746L487.089 432.014C486.939 432.015 486.819 432.137 486.82 432.286L486.821 432.446C486.822 432.595 486.943 432.715 487.092 432.714L538.372 432.446C538.521 432.445 538.641 432.323 538.64 432.174L538.639 432.014C538.639 431.865 538.517 431.745 538.368 431.746Z" fill="#916D81"/>
<path d="M435.97 442.58C436.041 442.448 436.155 442.343 436.293 442.283C436.43 442.223 436.584 442.211 436.73 442.249C436.875 442.287 437.004 442.373 437.094 442.493C437.185 442.613 437.233 442.76 437.23 442.91V444.08C437.23 444.17 437.207 444.259 437.161 444.337C437.116 444.415 437.051 444.479 436.973 444.524C436.895 444.569 436.806 444.592 436.716 444.591C436.626 444.591 436.537 444.566 436.46 444.52C435.673 444.053 435.51 443.407 435.97 442.58Z" fill="#EEF2F2"/>
<path d="M421.019 444.748C421.157 445.447 421.72 445.925 422.278 445.816C422.837 445.706 423.178 445.051 423.041 444.352C422.904 443.653 422.34 443.175 421.782 443.284C421.224 443.394 420.882 444.049 421.019 444.748Z" fill="#EEF2F2"/>
<path d="M186.81 445.53L187.96 446C188.245 446.109 188.435 446.301 188.488 446.534C188.541 446.767 188.453 447.021 188.244 447.241C188.034 447.462 187.72 447.629 187.371 447.708C187.021 447.786 186.665 447.769 186.38 447.66C185.82 447.453 185.667 446.89 185.92 445.97C185.944 445.879 185.988 445.795 186.047 445.722C186.107 445.649 186.181 445.59 186.265 445.548C186.35 445.507 186.442 445.483 186.536 445.48C186.63 445.477 186.723 445.494 186.81 445.53Z" fill="#EEF2F2"/>
<path d="M207.76 446.29L200.71 446.83L190.33 446.72C190.23 446.72 190.193 446.673 190.22 446.58C190.253 446.493 190.283 446.403 190.31 446.31C190.323 446.283 190.363 446.27 190.43 446.27L207.76 446.29Z" fill="#6D8D92"/>
<path d="M207.76 446.29L255.39 446.6C255.423 446.6 255.44 446.617 255.44 446.65C255.44 446.657 255.44 446.667 255.44 446.68C255.44 446.7 255.43 446.71 255.41 446.71L200.71 446.83L207.76 446.29Z" fill="#EEF2F2"/>
<path d="M391.289 447.362L325.449 447.477C325.245 447.478 325.08 447.644 325.08 447.848L325.08 447.888C325.08 448.092 325.246 448.258 325.451 448.257L391.291 448.142C391.495 448.142 391.66 447.976 391.66 447.772L391.66 447.732C391.66 447.527 391.494 447.362 391.289 447.362Z" fill="#916D81"/>
<path d="M380.51 468.52L380.5 467.74C393.353 467.227 406.21 467.06 419.07 467.24C442.15 467.57 465.23 467.5 488.32 467.79C488.453 467.79 488.483 467.85 488.41 467.97C488.377 468.03 488.303 468.06 488.19 468.06C473.82 468.69 457.57 468.3 445.19 468.44C423.623 468.7 402.063 468.727 380.51 468.52Z" fill="#916D81"/>
<path d="M62.4599 468.25H60.0299C59.9662 468.255 59.9031 468.235 59.8543 468.194C59.8056 468.153 59.7752 468.094 59.7699 468.03C59.7646 467.966 59.7848 467.903 59.826 467.854C59.8673 467.806 59.9262 467.775 59.9899 467.77C62.0032 467.457 64.4432 467.3 67.3099 467.3C99.2032 467.293 131.1 467.387 163 467.58C163.44 467.587 163.937 467.537 164.49 467.43C165.297 467.283 165.803 467.26 166.01 467.36C167.637 468.133 167.55 468.52 165.75 468.52C147.83 468.51 130.26 468.36 111.76 468.79C97.4399 469.123 83.1199 469.033 68.7999 468.52C66.9299 468.45 65.3399 469.58 63.2399 468.45C62.9999 468.317 62.7399 468.25 62.4599 468.25Z" fill="#EEF2F2"/>
<path d="M380.5 467.74L380.51 468.52C379.263 469.22 378.21 469.26 377.35 468.64C377.037 468.42 377.023 468.18 377.31 467.92C378.27 467.033 379.333 466.973 380.5 467.74Z" fill="#EEF2F2"/>
<path d="M255.11 468.54C255.238 468.614 255.336 468.731 255.385 468.87C255.435 469.01 255.433 469.162 255.38 469.3C255.053 470.1 254.427 470.423 253.5 470.27C253.31 470.24 253.135 470.151 253 470.014C252.864 469.878 252.776 469.702 252.747 469.511C252.718 469.32 252.75 469.125 252.839 468.952C252.927 468.779 253.068 468.639 253.24 468.55C253.913 468.21 254.537 468.207 255.11 468.54Z" fill="#EEF2F2"/>
<path d="M270.475 469.203L256.519 468.837C256.376 468.834 256.256 468.947 256.253 469.09L256.252 469.11C256.248 469.254 256.362 469.373 256.505 469.377L270.461 469.743C270.604 469.746 270.723 469.633 270.727 469.49L270.728 469.47C270.732 469.326 270.618 469.207 270.475 469.203Z" fill="#6D8D92"/>
<path d="M371.191 486.462L318.411 486.278C318.262 486.277 318.141 486.398 318.14 486.547L318.14 486.587C318.14 486.736 318.26 486.857 318.409 486.858L371.189 487.042C371.338 487.043 371.459 486.922 371.46 486.773L371.46 486.733C371.46 486.584 371.34 486.463 371.191 486.462Z" fill="#6D8D92"/>
<path d="M197.47 489.667C197.386 490.23 197.716 490.745 198.208 490.819C198.699 490.892 199.166 490.496 199.25 489.933C199.334 489.37 199.004 488.855 198.512 488.781C198.021 488.708 197.554 489.104 197.47 489.667Z" fill="#EEF2F2"/>
<path d="M271.591 489.529L215.111 489.431C214.895 489.43 214.72 489.605 214.72 489.82L214.72 489.84C214.72 490.055 214.894 490.23 215.109 490.231L271.589 490.329C271.805 490.33 271.98 490.155 271.98 489.94L271.98 489.92C271.98 489.705 271.806 489.53 271.591 489.529Z" fill="#EEF2F2"/>
<path d="M370.6 511.82C370.6 511.762 370.623 511.706 370.665 511.664C370.706 511.623 370.762 511.6 370.82 511.6H370.99C394.597 511.6 417.237 511.652 433.93 511.744C450.622 511.835 460 511.96 460 512.09V512.33C460 512.46 450.622 512.585 433.93 512.676C417.237 512.768 394.597 512.82 370.99 512.82H370.82C370.762 512.82 370.706 512.797 370.665 512.756C370.623 512.714 370.6 512.658 370.6 512.6V511.82Z" fill="#EEF2F2"/>
<path d="M318.668 518.768L266.129 518.952C265.93 518.952 265.769 519.114 265.77 519.313L265.77 519.353C265.771 519.552 265.933 519.712 266.131 519.712L318.671 519.528C318.87 519.528 319.031 519.366 319.03 519.167L319.03 519.127C319.029 518.928 318.867 518.768 318.668 518.768Z" fill="#EEF2F2"/>
</g>
<defs>
<clipPath id="clip0_2417_5115">
<rect width="600" height="600" fill="white"/>
</clipPath>
</defs>
</svg>
